<svg width="24" height="36" viewBox="0 0 24 36" fill="none" xmlns="http://www.w3.org/2000/svg">
<path d="M8.3217 0.477285C10.2224 -0.0430592 12.0375 -0.150305 13.9793 0.216658C14.2078 0.259843 14.5864 0.324538 14.797 0.39359C15.2185 0.493858 15.632 0.625013 16.0343 0.78595C16.7327 1.06274 18.3247 1.88317 18.8449 2.37131C19.0681 2.528 19.5609 2.90704 19.7395 3.10658C19.9167 3.23614 20.7268 4.08153 20.8274 4.26061C20.986 4.42475 21.1269 4.60507 21.2479 4.7986C21.3122 4.89079 21.3969 5.00419 21.4444 5.1028C21.7633 5.56885 22.3517 6.52617 22.5304 7.03333C22.6481 7.31382 22.7389 7.57155 22.8384 7.85766C22.9421 8.19908 23.2589 9.19576 23.2725 9.49334C23.693 11.5021 23.42 14.044 22.6782 15.9397C22.596 16.1791 22.3611 16.7887 22.2197 16.9784C22.0428 17.3166 21.6668 17.9621 21.4346 18.2632C21.332 18.4335 21.1905 18.6501 21.0622 18.8012C20.8557 19.128 20.4498 19.5106 20.1755 19.8066C20.0497 19.9491 19.9223 20.0901 19.7932 20.2297C18.9315 21.143 18.756 21.4028 18.2088 22.5311C18.0845 22.8164 17.9471 23.1178 17.8347 23.4063C17.8204 23.4487 17.7518 23.6622 17.7361 23.6873C17.5533 23.8767 17.4567 24.8841 17.3458 24.8871C17.3361 24.7903 17.3537 24.2485 17.3381 24.2189C17.2567 24.717 17.2069 25.3479 17.1307 25.876C16.2062 25.9163 15.2251 25.8653 14.3398 25.9124L14.3201 25.9036L6.46229 25.9022C6.43927 25.5884 6.36641 25.2881 6.29808 24.9823L6.25175 24.7404C6.19083 24.8507 6.19298 24.8568 6.05701 24.8394C5.7749 23.4454 5.12661 21.8104 4.1711 20.7352C3.36998 19.8338 2.65915 19.1455 1.98809 18.1337C0.537937 15.9514 -0.151137 13.3513 0.0277772 10.7372C0.0708788 10.1267 0.207105 9.52905 0.33845 8.94544C0.669613 7.47387 1.19863 6.28807 2.06375 5.05534C2.4081 4.5647 2.85072 3.93606 3.3134 3.53485C3.45078 3.37297 3.88403 2.97121 4.04747 2.82911C4.10795 2.76212 4.49311 2.46223 4.57928 2.3929C5.1067 1.92418 6.38814 1.22914 7.0543 0.944323C7.2957 0.814796 7.7983 0.640732 8.06756 0.54391L8.3217 0.477285Z" fill="#FF0266"/>
<path d="M12.5381 7.33702C12.7787 7.20736 13.2582 6.77054 13.5388 6.56876C14.6104 5.79825 16.0474 5.57658 17.3366 5.80528C17.5078 6.01988 18.2742 6.09356 18.2537 6.28985L18.2073 6.31732C18.59 6.48074 18.8445 6.60894 19.1869 6.85228C19.3014 6.93366 19.4656 7.06542 19.5763 7.13478C19.8014 7.06672 19.9256 7.20179 20.0936 7.34359L20.4544 7.77891C20.4167 7.85527 20.4117 7.87251 20.341 7.91806C20.9915 8.86226 21.3703 9.86575 21.3484 11.0296C21.3421 11.3629 21.2973 11.5479 21.263 11.8588C21.1305 12.3289 20.9921 12.8306 20.777 13.2698C20.8407 13.3576 20.8525 13.4004 20.8903 13.5013C20.7349 13.7307 20.5866 14.0118 20.4218 14.2169C18.7752 16.8009 14.1084 16.8336 12.4439 14.2661C12.4331 14.2253 12.1091 13.8269 12.0423 13.7159C11.6711 13.7269 11.2997 13.7325 10.9284 13.7326C10.8537 13.869 10.6214 14.1541 10.5123 14.3185C10.4601 14.3121 10.401 14.279 10.352 14.2558C9.72232 14.8973 8.96461 15.4322 8.10252 15.7037C6.87996 16.0854 5.55622 15.9701 4.41807 15.3827C3.07044 14.6768 2.29227 13.6241 1.84242 12.1921C1.77982 11.9253 1.72737 11.6073 1.68499 11.3343C1.6653 10.3605 1.72117 10.0257 2.02613 9.11776C2.06606 9.05643 2.23665 8.69785 2.29139 8.59833C2.52854 8.16035 2.82551 7.75748 3.17369 7.40133C4.0689 6.49577 5.28539 5.98025 6.55867 5.96688C8.0445 5.95039 9.1559 6.48863 10.1958 7.50218L10.2573 7.42499C10.4164 7.35393 10.513 7.34654 10.6849 7.35136C11.1429 7.3421 11.601 7.34196 12.059 7.35098C12.2066 7.35376 12.397 7.3654 12.5381 7.33702Z" fill="#CCCDE2"/>
<path d="M20.2009 14.1482L20.2516 14.1571C20.4044 14.0459 20.4366 13.8677 20.5282 13.8722C20.5312 13.995 20.4031 14.0568 20.381 14.2116L20.4218 14.2175C18.7753 16.8016 14.1084 16.8343 12.444 14.2667C12.5188 14.2811 12.6599 14.2808 12.7054 14.304C12.7278 14.3268 12.7503 14.3494 12.7729 14.3719C13.7618 15.3536 14.9612 15.9363 16.3705 15.9252C18.0296 15.9122 19.0649 15.302 20.2009 14.1482Z" fill="#121A3E"/>
<path d="M12.5382 7.33702C12.7788 7.20736 13.2583 6.77054 13.5389 6.56876C14.6105 5.79825 16.0475 5.57658 17.3367 5.80528C17.5079 6.01988 18.2743 6.09356 18.2538 6.28985L18.2074 6.31732C16.7319 5.80106 15.6103 5.83324 14.1576 6.5033C13.5857 6.76707 13.1725 7.14374 12.7138 7.56387C12.3101 7.56671 10.434 7.61342 10.1959 7.50218L10.2574 7.42499C10.4164 7.35393 10.513 7.34654 10.685 7.35136C11.143 7.3421 11.6011 7.34196 12.0591 7.35098C12.2067 7.35376 12.3971 7.3654 12.5382 7.33702Z" fill="#121A3E"/>
<path d="M10.6851 7.35178C11.143 7.34251 11.6012 7.34237 12.0592 7.35139L12.1548 7.41143C12.0971 7.44121 11.8346 7.42803 11.7626 7.42006L11.7565 7.39637L11.8661 7.38857C11.668 7.32961 10.9771 7.40925 10.6851 7.35178Z" fill="#121A3E"/>
<path d="M10.8237 13.5508C11.2527 13.5489 11.6887 13.5428 12.117 13.5457C12.3162 13.796 12.5124 14.0488 12.7056 14.3038C12.66 14.2807 12.5189 14.2809 12.4441 14.2666C12.4333 14.2258 12.1093 13.8274 12.0425 13.7164C11.6713 13.7274 11.2999 13.733 10.9285 13.7331C10.8538 13.8695 10.6216 14.1546 10.5125 14.319C10.4603 14.3126 10.4012 14.2795 10.3522 14.2563C10.5249 14.0455 10.7168 13.8027 10.8237 13.5508Z" fill="#121A3E"/>
<path d="M19.5763 7.13535C19.8013 7.06729 19.9255 7.20236 20.0936 7.34416L20.4544 7.77948C20.4167 7.85584 20.4117 7.87308 20.341 7.91864C20.0858 7.6103 19.8678 7.4037 19.5763 7.13535Z" fill="#121A3E"/>
<path d="M20.7772 13.2695C20.8409 13.3573 20.8527 13.4002 20.8905 13.501C20.7351 13.7305 20.5868 14.0116 20.422 14.2166L20.3812 14.2107C20.4033 14.0559 20.5314 13.9941 20.5284 13.8712C20.4368 13.8668 20.4045 14.045 20.2518 14.1561L20.201 14.1473C20.4606 13.82 20.5834 13.6388 20.7772 13.2695Z" fill="#121A3E"/>
<path d="M6.38324 6.66612C7.31534 6.5396 8.62201 7.04329 9.34136 7.63723C9.57104 7.82691 9.78126 8.0842 10.0252 8.24094C10.4821 8.26438 11.095 8.23964 11.5638 8.24676C11.938 8.25244 12.7148 8.26402 13.0455 8.21422C13.236 8.07537 13.5076 7.79638 13.6993 7.62968C14.4817 6.96091 15.6286 6.61077 16.6471 6.67503C19.0082 6.824 20.7946 8.85902 20.6186 11.2323C20.5436 12.3801 20.0145 13.4508 19.1484 14.2077C18.2144 15.0108 17.2029 15.3146 15.9867 15.2224C14.7864 15.0963 13.9033 14.6033 13.1202 13.6872C12.8971 13.4263 12.6926 13.1068 12.462 12.8662C12.0033 12.8474 10.9262 12.843 10.4937 12.8822C10.2846 13.1097 10.086 13.4529 9.87968 13.7002C9.15635 14.5683 8.2192 15.0804 7.10797 15.2085C4.7858 15.4763 2.6117 13.6874 2.40088 11.3291C2.29645 10.1936 2.65568 9.06424 3.39685 8.19776C4.1729 7.2778 5.18089 6.76746 6.38324 6.66612Z" fill="#121A3E"/>
<path d="M14.9966 14.0145C13.5144 13.3106 12.7523 11.6434 13.1897 10.062C13.6271 8.4805 15.1376 7.44199 16.7708 7.59979C18.404 7.75758 19.6877 9.06607 19.8143 10.702C19.9408 12.338 18.8737 13.8283 17.2842 14.2354C17.1148 14.4579 16.1918 14.4552 15.934 14.4008L16.2202 14.3913C15.8025 14.3403 15.4816 14.4075 15.1319 14.199C15.2615 14.2447 15.3937 14.2697 15.5279 14.2985C15.3629 14.2281 15.0569 14.1768 14.9966 14.0145Z" fill="#FFDE03"/>
<path d="M17.284 14.2356C17.1146 14.4581 16.1916 14.4554 15.9339 14.401L16.22 14.3915C15.8023 14.3405 15.4815 14.4077 15.1318 14.1992C15.2614 14.2449 15.3936 14.2699 15.5278 14.2987C15.3628 14.2283 15.0568 14.177 14.9965 14.0146C15.7097 14.3534 16.5191 14.4316 17.284 14.2356Z" fill="#121A3E"/>
<path d="M15.6045 10.1813C15.9619 10.1512 16.3595 10.1798 16.6987 10.1586C18.5562 10.0422 17.4703 11.1929 17.0114 12.0387C16.6519 12.701 16.1818 12.787 15.8098 12.0675C15.5351 11.6124 14.4643 10.1999 15.6045 10.1813Z" fill="#5D2B64"/>
<path d="M15.8098 12.0669C15.5351 11.6118 14.4643 10.1993 15.6045 10.1807C15.9811 10.204 16.4815 10.1927 16.8655 10.1856C16.5742 10.7699 16.1417 11.4245 15.8098 12.0669Z" fill="#121A3E"/>
<path d="M4.99687 13.9302C4.20314 13.4977 3.60554 12.7772 3.32718 11.9172C2.7748 10.2257 3.79441 8.27857 5.48816 7.76324C6.47001 7.46451 7.30615 7.55543 8.21578 8.02456C8.69742 8.26517 9.11769 8.63525 9.38837 9.1043C9.85571 9.75516 10.0342 10.6751 9.90336 11.4632C9.76073 12.372 9.26042 13.1859 8.51399 13.7234C8.45034 13.7683 8.38576 13.8118 8.32024 13.8539C8.22176 14.3198 6.69305 14.5005 6.34076 14.374C6.53901 14.3908 6.6047 14.3877 6.79974 14.3698C6.60709 14.3741 6.21041 14.3941 6.05234 14.2903C6.02943 14.2816 5.76111 14.2204 5.70704 14.2071C5.42168 14.1365 5.25967 14.0613 4.99687 13.9302Z" fill="#DA9A22"/>
<path d="M4.99687 13.9302C4.20314 13.4977 3.60554 12.7772 3.32718 11.9172C2.7748 10.2257 3.79441 8.27857 5.48816 7.76324C6.47001 7.46451 7.30615 7.55543 8.21578 8.02456C7.78912 8.79767 7.48325 9.4045 6.96481 10.1545C6.70516 10.1603 5.77405 10.1458 5.59075 10.1812L5.47518 10.2017C5.27332 10.2443 5.19517 10.3218 5.13353 10.5197C5.11429 10.8303 5.70568 11.813 5.89979 12.0701L5.89541 12.0862C5.79092 12.153 5.70431 12.3974 5.65136 12.5214C5.4754 12.934 5.09002 13.5051 4.99687 13.9302Z" fill="#FFDE03"/>
<path d="M9.38803 9.10449C9.85536 9.75536 10.0338 10.6753 9.90302 11.4634C9.76039 12.3722 9.26008 13.1861 8.51365 13.7236C8.45 13.7685 8.38542 13.812 8.31989 13.8541C8.22142 14.32 6.69271 14.5007 6.34042 14.3742C6.53867 14.391 6.60435 14.3879 6.7994 14.37C6.60675 14.3743 6.21007 14.3943 6.052 14.2905L6.42428 14.3014C6.50207 14.1777 6.62534 13.7413 6.76242 13.5044C6.94473 13.1892 7.14589 12.8644 7.32569 12.5514L8.55832 10.3815C8.73897 10.0686 9.06895 9.17523 9.38803 9.10449Z" fill="#FFDE03"/>
<path d="M8.31989 13.8545C8.22142 14.3203 6.69271 14.5011 6.34042 14.3746C6.53867 14.3914 6.60435 14.3882 6.7994 14.3704C6.60675 14.3747 6.21007 14.3947 6.052 14.2909L6.42428 14.3018C7.29254 14.3024 7.55162 14.245 8.31989 13.8545Z" fill="#121A3E"/>
<path d="M6.96473 10.1543C7.31912 10.158 7.84331 10.1261 7.82302 10.6184C7.82084 10.6714 7.81381 10.7077 7.79439 10.756C7.71787 10.9689 7.50757 11.2766 7.37722 11.4704C7.00552 12.1734 6.6365 13.131 5.89533 12.086L5.89971 12.0699C5.70561 11.8128 5.11421 10.8301 5.13345 10.5195C5.19509 10.3216 5.27324 10.2441 5.4751 10.2015L5.59067 10.181C5.77397 10.1456 6.70508 10.1601 6.96473 10.1543Z" fill="#5D2B64"/>
<path d="M5.4751 10.2022L5.59067 10.1816C5.97227 10.1897 6.61468 10.2022 6.99181 10.1825C6.85625 10.4542 6.0489 11.903 5.89971 12.0705C5.70561 11.8134 5.11421 10.8307 5.13345 10.5201C5.19509 10.3223 5.27324 10.2447 5.4751 10.2022Z" fill="#121A3E"/>
<path d="M5.13342 10.5201C5.19506 10.3222 5.27321 10.2447 5.47506 10.2021C5.41724 10.2937 5.36327 10.2799 5.31697 10.3727C5.28322 10.4403 5.23598 10.5205 5.16839 10.5568L5.13342 10.5201Z" fill="#121A3E"/>
<path d="M7.37723 11.4703L7.35718 11.4375C7.40861 11.2533 7.60007 10.8521 7.73668 10.7363L7.7944 10.7559C7.71787 10.9688 7.50758 11.2765 7.37723 11.4703Z" fill="#412E58"/>
<path d="M14.7974 0.393555C15.2189 0.493823 15.6324 0.624978 16.0347 0.785915C16.7331 1.0627 18.3252 1.88314 18.8453 2.37127C19.0685 2.52796 19.5613 2.907 19.74 3.10655C19.9171 3.2361 20.7273 4.08149 20.8278 4.26058C20.9864 4.42471 21.1273 4.60504 21.2483 4.79857C21.3126 4.89076 21.3973 5.00415 21.4448 5.10277C21.7637 5.56881 22.3521 6.52614 22.5308 7.0333C22.6486 7.31378 22.7393 7.57151 22.8388 7.85762C22.9425 8.19905 23.2594 9.19572 23.2729 9.4933C23.6934 11.502 23.4204 14.0439 22.6786 15.9397C22.5964 16.1791 22.3615 16.7887 22.2201 16.9784C22.0432 17.3166 21.6673 17.962 21.4351 18.2632C21.3324 18.4335 21.1909 18.6501 21.0626 18.8012C20.8561 19.128 20.4502 19.5106 20.1759 19.8065C20.0501 19.949 19.9227 20.0901 19.7936 20.2296C18.9319 21.143 18.7564 21.4028 18.2092 22.5311C18.0849 22.8164 17.9475 23.1177 17.8351 23.4062C17.8208 23.4487 17.7522 23.6621 17.7365 23.6872C17.5537 23.8767 17.4571 24.8841 17.3462 24.8871C17.3365 24.7903 17.3541 24.2484 17.3385 24.2189C17.2572 24.7169 17.2073 25.3479 17.1311 25.876C16.2066 25.9163 15.2255 25.8652 14.3403 25.9124L14.3205 25.9036C14.362 25.7877 14.3718 24.8976 14.3914 24.7062C14.4956 23.6365 14.7608 22.5886 15.1779 21.5982C15.7172 20.3081 16.5659 19.2501 17.5095 18.2392C18.2051 17.494 18.8058 16.6753 19.2828 15.7722C16.7773 17.3575 13.7509 16.8202 12.0844 14.328L10.9065 14.3449C10.8939 14.363 10.8812 14.3809 10.8684 14.3988C10.0057 15.5999 9.011 16.3622 7.51797 16.6045C6.16698 16.8216 4.78539 16.4877 3.68256 15.6777C3.00052 15.1825 2.52144 14.596 2.13964 13.8507C2.07365 13.7219 1.93533 13.4475 1.91335 13.3089C1.96528 13.1233 1.6131 12.6096 1.68477 12.4169C1.76541 12.3956 1.78857 12.4316 1.88263 12.4808C1.84066 12.3711 1.81775 12.3062 1.84276 12.1924C2.29261 13.6244 3.07078 14.6771 4.4184 15.383C5.55655 15.9705 6.88029 16.0858 8.10286 15.704C8.96494 15.4325 9.72265 14.8976 10.3524 14.2561C10.4014 14.2793 10.4605 14.3124 10.5127 14.3188C10.6218 14.1544 10.854 13.8693 10.9287 13.7329C11.3001 13.7328 11.6714 13.7272 12.0427 13.7162C12.1095 13.8272 12.4335 14.2257 12.4443 14.2664C14.1087 16.8339 18.7756 16.8012 20.4221 14.2172C20.5869 14.0122 20.7352 13.731 20.8906 13.5016C20.8528 13.4007 20.841 13.3579 20.7773 13.2701C20.9925 12.8309 21.1308 12.3292 21.2633 11.8591C21.2977 11.5482 21.3425 11.3632 21.3487 11.0299C21.3706 9.86606 20.9918 8.86257 20.3414 7.91837C20.412 7.87281 20.417 7.85558 20.4548 7.77922L20.094 7.34389L20.0381 7.22824C20.0582 7.21815 20.0858 7.19661 20.1051 7.18287C20.1168 7.07921 20.0529 6.81889 20.0165 6.71815C19.4127 5.04725 18.479 3.39472 17.2885 2.07217C17.0598 1.81805 16.7872 1.50625 16.5082 1.31795C16.1492 1.07575 15.7012 1.02498 15.2989 0.822951C15.1891 0.780345 15.1126 0.753871 14.9993 0.722103C15.1014 0.581297 15.0957 0.611824 15.2613 0.594037C15.168 0.524572 14.9409 0.556946 14.7974 0.393555Z" fill="#5D2B64"/>
<path d="M1.84253 12.1924C2.29238 13.6244 3.07055 14.6771 4.41817 15.383C5.55632 15.9704 6.88006 16.0857 8.10263 15.7039C8.96471 15.4325 9.72242 14.8976 10.3521 14.2561C10.4011 14.2792 10.4602 14.3123 10.5124 14.3188C9.61444 15.6339 8.29775 16.0926 6.74902 16.1561C4.84836 16.234 3.45273 15.3806 2.39595 13.8323C2.25766 13.6297 2.13641 13.5972 2.12731 13.3116L2.15629 13.2841L2.21006 13.3745L2.23808 13.3572C2.23858 13.3411 2.23863 13.2824 2.23177 13.2718C2.07665 13.0322 1.95868 12.7582 1.8824 12.4808C1.84043 12.3711 1.81752 12.3061 1.84253 12.1924Z" fill="#121A3E"/>
<path d="M23.1071 9.58661L23.1269 9.34082L23.1666 9.35323C23.2309 9.44878 23.2372 9.49928 23.2637 9.61074L23.2767 9.61513L23.2723 9.49335C23.6928 11.5021 23.4198 14.044 22.678 15.9397L22.5961 15.943C22.5465 15.8698 22.5718 15.8259 22.5818 15.7172C23.0445 14.3615 23.2918 13.2135 23.2783 11.77C23.2761 11.5238 23.2993 11.2263 23.2814 10.9876C23.2472 10.5353 23.1363 10.0356 23.1071 9.58661Z" fill="#121A3E"/>
<path d="M20.4546 7.7793C21.2539 8.70789 21.5726 9.95727 21.5461 11.1776C21.5444 11.2529 21.4883 11.6393 21.4575 11.6914C21.349 11.7958 21.3032 12.1175 21.227 12.286C21.2508 12.1353 21.3005 11.9923 21.2632 11.8592C21.2975 11.5483 21.3423 11.3633 21.3486 11.03C21.3704 9.86613 20.9916 8.86265 20.3412 7.91845C20.4118 7.87289 20.4169 7.85566 20.4546 7.7793Z" fill="#121A3E"/>
<path d="M14.7971 0.393555C15.2186 0.493823 15.6322 0.624978 16.0344 0.785915C16.7328 1.0627 18.3249 1.88314 18.845 2.37127C18.7333 2.3994 18.6987 2.40516 18.5971 2.3542C18.1265 1.92458 16.4295 1.10137 15.7872 0.878766C15.6833 0.842779 15.4154 0.82535 15.2987 0.822951C15.1888 0.780345 15.1123 0.753871 14.9991 0.722103C15.1011 0.581297 15.0954 0.611824 15.261 0.594037C15.1677 0.524572 14.9406 0.556946 14.7971 0.393555Z" fill="#121A3E"/>
<path d="M19.2443 2.91602C19.3298 2.94693 19.7008 3.10765 19.7396 3.10594C19.9168 3.23549 20.7269 4.08088 20.8274 4.25996C20.9861 4.4241 21.127 4.60442 21.248 4.79796C21.1767 4.88772 21.1612 4.91474 21.1603 5.04391C20.7555 4.65619 20.6772 4.46359 20.3473 4.02487C20.2388 3.88067 19.9257 3.61153 19.7738 3.4312C19.694 3.38893 19.309 3.00026 19.2443 2.91602Z" fill="#412E58"/>
<path d="M19.2443 2.91602C19.3298 2.94693 19.7008 3.10765 19.7396 3.10594C19.9168 3.23549 20.7269 4.08088 20.8274 4.25996C20.8088 4.25994 20.7902 4.25991 20.7715 4.25988C20.5328 4.02052 20.0659 3.5703 19.7738 3.4312C19.694 3.38893 19.309 3.00026 19.2443 2.91602Z" fill="#121A3E"/>
<path d="M20.1338 19.5238C20.3508 19.1464 20.9735 18.4098 21.2946 18.1123C21.3336 18.1827 21.348 18.2482 21.4347 18.2627C21.332 18.433 21.1906 18.6496 21.0622 18.8007C20.8557 19.1275 20.4499 19.5101 20.1756 19.806L20.1808 19.7012L20.135 19.6714C19.9894 19.7158 19.9725 19.8137 19.8307 19.858C19.9268 19.744 20.0322 19.6334 20.1338 19.5238Z" fill="#121A3E"/>
<path d="M21.0622 18.8018C20.8557 19.1285 20.4499 19.5112 20.1756 19.8071L20.1808 19.7023L20.135 19.6725C19.9894 19.7169 19.9725 19.8148 19.8307 19.8591C19.9268 19.7451 20.0322 19.6344 20.1338 19.5249C20.4636 19.2982 20.7587 18.9924 21.0622 18.8018Z" fill="#121A3E"/>
<path d="M19.4533 20.3413C19.554 20.315 19.5938 20.249 19.6879 20.1953L19.7934 20.2298C18.9316 21.1432 18.7561 21.4029 18.2089 22.5312C18.1498 22.5742 18.0915 22.6515 18.0471 22.7098L18.0889 22.6486L18.0584 22.6641C18.083 22.5424 18.102 22.462 18.1009 22.3376L18.1006 22.3138C18.2292 21.9418 18.7771 21.1854 19.036 20.8423C19.1495 20.6917 19.3528 20.5019 19.4533 20.3413Z" fill="#121A3E"/>
<path d="M21.2629 11.8593C21.3001 11.9923 21.2505 12.1354 21.2267 12.286C21.3028 12.1175 21.3487 11.7959 21.4572 11.6914C21.415 12.2529 21.2162 13.0362 20.8901 13.5017C20.8524 13.4009 20.8406 13.358 20.7769 13.2702C20.992 12.831 21.1303 12.3293 21.2629 11.8593Z" fill="#121A3E"/>
<path d="M21.9852 17.0622C22.0734 16.8007 22.2283 16.0553 22.3683 15.886C22.5348 15.9021 22.518 15.8549 22.582 15.7168C22.5721 15.8255 22.5467 15.8694 22.5963 15.9425L22.6782 15.9393C22.596 16.1787 22.3611 16.7883 22.2197 16.978C22.0996 16.9843 22.0849 16.9919 21.9852 17.0622Z" fill="#121A3E"/>
<path d="M21.4446 5.10254C21.7634 5.56858 22.3519 6.52591 22.5305 7.03307C22.372 7.00147 22.2663 6.74432 22.1593 6.59535C21.9104 6.12163 21.6732 5.72936 21.3821 5.28104C21.3838 5.20752 21.4113 5.16839 21.4446 5.10254Z" fill="#121A3E"/>
<path d="M22.7201 8.0541C22.7264 7.99641 22.7328 7.95041 22.7433 7.89333L22.8387 7.85742C22.9424 8.19885 23.2592 9.19552 23.2727 9.4931L23.2771 9.61488L23.2642 9.6105C23.2377 9.49903 23.2314 9.44854 23.1671 9.35299L23.1274 9.34058L23.1075 9.58637C23.0284 9.19646 22.8726 8.39837 22.7201 8.0541Z" fill="#121A3E"/>
<path d="M22.1592 6.5957C22.2662 6.74467 22.3719 7.00183 22.5305 7.03343C22.6482 7.31391 22.7389 7.57164 22.8385 7.85775L22.7431 7.89365C22.7326 7.95074 22.7263 7.99674 22.7199 8.05443C22.4113 7.35299 22.3338 7.35652 22.1592 6.5957Z" fill="#121A3E"/>
<path d="M21.9853 17.0627C22.085 16.9923 22.0996 16.9848 22.2197 16.9785C22.0428 17.3167 21.6669 17.9621 21.4347 18.2633C21.348 18.2488 21.3336 18.1833 21.2946 18.1129C21.4156 17.9686 21.9103 17.2291 21.9853 17.0627Z" fill="#121A3E"/>
<path d="M18.8449 2.37059C19.0681 2.52728 19.5609 2.90632 19.7395 3.10586C19.7007 3.10757 19.3298 2.94686 19.2442 2.91594C19.023 2.69348 18.8073 2.55951 18.5969 2.35352C18.6986 2.40448 18.7332 2.39871 18.8449 2.37059Z" fill="#121A3E"/>
<path d="M19.8309 19.8585C19.9726 19.8141 19.9896 19.7162 20.1351 19.6719L20.1809 19.7017L20.1757 19.8065C20.05 19.949 19.9225 20.09 19.7935 20.2296L19.688 20.1951C19.5939 20.2488 19.5541 20.3148 19.4534 20.3411C19.5259 20.1706 19.6993 19.9889 19.8309 19.8585Z" fill="#121A3E"/>
<path d="M17.835 23.4061L17.7839 23.2972C17.7779 23.0733 17.9899 22.5078 18.1008 22.3135L18.1012 22.3373C18.1023 22.4618 18.0832 22.5421 18.0586 22.6639L18.0891 22.6483L18.0473 22.7095C18.0917 22.6512 18.15 22.574 18.2091 22.5309C18.0849 22.8163 17.9474 23.1176 17.835 23.4061Z" fill="#121A3E"/>
<path d="M21.248 4.79883C21.3123 4.89102 21.3969 5.00441 21.4445 5.10303C21.4112 5.16888 21.3838 5.20801 21.382 5.28153C21.3107 5.19852 21.2364 5.12321 21.1603 5.04478C21.1612 4.91562 21.1767 4.88859 21.248 4.79883Z" fill="#121A3E"/>
<path d="M4.04748 2.8291L4.06788 2.89024C4.01138 2.99762 3.9629 3.0846 3.89914 3.18774C3.73109 3.39544 3.24967 3.77369 3.17521 4.05524C2.75854 4.58629 2.31508 5.11529 1.94156 5.67708C1.70912 6.02667 1.53134 6.45127 1.3446 6.83086C-0.614638 10.8136 0.0946497 15.5873 2.89964 18.9751C3.35148 19.5208 3.87854 20.0064 4.34742 20.537C4.75155 20.9902 5.16219 21.6998 5.45513 22.241C5.87729 23.0208 6.05113 23.8894 6.25175 24.7404C6.19083 24.8507 6.19299 24.8568 6.05701 24.8394C5.7749 23.4454 5.12661 21.8104 4.1711 20.7352C3.36998 19.8338 2.65915 19.1455 1.98809 18.1337C0.537937 15.9514 -0.151137 13.3513 0.0277772 10.7372C0.0708788 10.1267 0.207105 9.52905 0.33845 8.94544C0.669613 7.47387 1.19863 6.28807 2.06375 5.05534C2.4081 4.56469 2.85072 3.93606 3.3134 3.53484C3.45078 3.37297 3.88403 2.9712 4.04748 2.8291Z" fill="#121A3E"/>
<path d="M4.04762 2.8291L4.06802 2.89024C4.01152 2.99762 3.96304 3.0846 3.89928 3.18774C3.79926 3.23911 3.34517 3.52649 3.31354 3.53484C3.45092 3.37297 3.88417 2.9712 4.04762 2.8291Z" fill="#121A3E"/>
<path d="M1.68823 9.39873C1.69127 9.31782 1.75723 9.16163 1.78709 9.07901C2.91466 5.96006 6.7869 4.72082 9.525 6.57982C9.8355 6.79064 10.1088 7.04705 10.3877 7.31377C11.0031 7.33354 11.9645 7.27539 12.5385 7.33774C12.3973 7.36611 12.2069 7.35448 12.0593 7.35169C11.6013 7.34267 11.1432 7.34281 10.6852 7.35208C10.5133 7.34725 10.4167 7.35464 10.2576 7.42571L10.1962 7.50289C9.15625 6.48934 8.04485 5.9511 6.55901 5.96759C5.28574 5.98097 4.06924 6.49648 3.17404 7.40205C2.82586 7.7582 2.52889 8.16107 2.29174 8.59904C2.237 8.69856 2.06641 9.05714 2.02648 9.11847L1.97519 9.13149L1.8723 9.39904L1.84759 9.39074L1.79727 9.28578C1.75491 9.31851 1.75317 9.34391 1.73724 9.39529L1.68823 9.39873Z" fill="#121A3E"/>
<path d="M8.32186 0.477285C10.2226 -0.0430592 12.0377 -0.150305 13.9795 0.216658C14.208 0.259843 14.5865 0.324538 14.7971 0.39359C14.9406 0.556981 15.1677 0.524607 15.261 0.594072C15.0954 0.611859 15.1011 0.581332 14.9991 0.722138C13.1343 0.1248 10.8089 0.0749688 8.92241 0.579898C8.36182 0.729942 7.49295 1.03819 6.93787 1.26016C6.99864 1.20021 7.03819 1.17591 7.04778 1.09343C7.00843 1.07636 6.99784 1.07493 6.9658 1.04558C7.04139 0.994568 7.02341 1.02157 7.05446 0.944324C7.29586 0.814796 7.79846 0.640732 8.06772 0.54391L8.32186 0.477285Z" fill="#121A3E"/>
<path d="M8.06775 0.544164L8.32189 0.477539L8.42461 0.541517L8.43021 0.583709C8.36378 0.617187 8.28687 0.623227 8.21603 0.600586C8.15657 0.581862 8.13663 0.558366 8.06775 0.544164Z" fill="#121A3E"/>
<path d="M4.57964 2.39291C5.10706 1.92419 6.3885 1.22915 7.05465 0.944336C7.0236 1.02158 7.04158 0.994581 6.966 1.0456C6.99804 1.07494 7.00863 1.07637 7.04798 1.09344C7.03838 1.17592 6.99884 1.20022 6.93806 1.26017C6.01611 1.72826 5.4257 2.10666 4.6106 2.7192C4.57412 2.58526 4.5485 2.52641 4.57964 2.39291Z" fill="#121A3E"/>
<path d="M17.3368 5.80566C18.2992 5.94677 19.403 6.49569 20.0379 7.22832L20.0939 7.34397C19.9258 7.20217 19.8016 7.0671 19.5765 7.13516C19.4658 7.06581 19.3016 6.93405 19.1871 6.85267C18.8448 6.60933 18.5903 6.48113 18.2075 6.31771L18.2539 6.29024C18.2744 6.09395 17.508 6.02027 17.3368 5.80566Z" fill="#121A3E"/>
<path d="M1.68796 9.39843L1.73697 9.39498C1.75291 9.3436 1.75464 9.3182 1.797 9.28547L1.84733 9.39043L1.87203 9.39873L1.97492 9.13118L2.02621 9.11816C1.72125 10.0261 1.66538 10.3609 1.68507 11.3347L1.67158 11.3755L1.67368 11.5131L1.64216 11.449C1.60612 11.4874 1.60143 11.5081 1.57777 11.5559L1.53061 11.5576L1.43305 11.2432C1.40878 10.8572 1.43661 10.4698 1.51575 10.0912C1.51956 9.91855 1.62625 9.56151 1.68796 9.39843Z" fill="#121A3E"/>
<path d="M1.43305 11.2428C1.40878 10.8569 1.43661 10.4694 1.51575 10.0908C1.5554 10.5998 1.50039 10.8633 1.58877 11.4102C1.62661 11.3886 1.62947 11.3817 1.67158 11.3751L1.67368 11.5127L1.64216 11.4486C1.60612 11.487 1.60143 11.5077 1.57777 11.5555L1.53061 11.5572L1.43305 11.2428Z" fill="#121A3E"/>
<path d="M1.43311 11.2432L1.53067 11.5575L1.57783 11.5559C1.60149 11.508 1.60617 11.4873 1.64222 11.4489L1.67374 11.5131L1.67164 11.3754L1.68512 11.3347C1.72751 11.6076 1.77996 11.9257 1.84256 12.1925C1.81755 12.3062 1.84046 12.3712 1.88243 12.4809C1.78837 12.4317 1.76521 12.3957 1.68457 12.4169C1.6129 12.6097 1.96508 13.1234 1.91315 13.3089C1.65537 12.7198 1.44538 11.8887 1.43311 11.2432Z" fill="#121A3E"/>
<path d="M4.04749 2.82879C4.10797 2.7618 4.49313 2.46191 4.5793 2.39258C4.54817 2.52608 4.57379 2.58493 4.61027 2.71887C4.15954 3.07408 3.55865 3.63207 3.17523 4.05493C3.24969 3.77337 3.73111 3.39513 3.89916 3.18742C3.96292 3.08428 4.0114 2.99731 4.0679 2.88992L4.04749 2.82879Z" fill="#121A3E"/>
<path d="M13.9748 16.9072L14.0484 16.9094C14.1393 16.9551 14.2019 17.0551 14.2651 17.1387C13.452 18.3403 11.4541 18.4665 10.1718 18.1483C9.97729 18.0773 9.90507 18.0202 9.86853 17.8094C9.96276 17.5437 10.3952 17.7117 10.6043 17.7509C11.9147 17.9965 12.9006 17.6338 13.9748 16.9072Z" fill="#121A3E"/>
<path d="M17.1309 25.8763C17.207 25.3482 17.2569 24.7172 17.3382 24.2192C17.3539 24.2487 17.3362 24.7906 17.346 24.8874C17.4569 24.8843 17.5535 23.877 17.7363 23.6875C17.5575 24.3372 17.3801 25.015 17.3621 25.6959C17.3409 26.4978 17.3421 27.3138 17.3439 28.1182C17.3471 29.5081 17.4439 30.5935 16.0967 31.4001C15.7738 31.5935 15.039 31.7311 14.939 31.8615C14.7822 32.1251 14.653 32.3386 14.4464 32.5677L14.2366 32.8201C14.1248 32.9508 14.0111 33.0605 13.8668 33.1557C13.7958 33.2056 13.6971 33.2792 13.6231 33.3184C13.3424 33.4827 12.785 33.6984 12.4654 33.7312C12.4009 33.745 12.336 33.7568 12.2707 33.7665C11.3911 33.8947 10.3605 33.684 9.64871 33.1499C9.27891 32.9425 8.71239 32.2059 8.53871 31.8011C8.47728 31.7504 8.23805 31.7338 8.09697 31.6908C7.94186 31.6406 7.80756 31.586 7.65691 31.5251C6.02931 30.6713 6.1464 29.4179 6.16038 27.8052C6.16727 27.0105 6.18459 26.1418 6.12985 25.3534L6.05719 24.8397C6.19317 24.857 6.19102 24.851 6.25193 24.7407L6.29826 24.9825C6.36659 25.2883 6.43945 25.5886 6.46248 25.9025L14.3203 25.9038L14.34 25.9127C15.2252 25.8655 16.2064 25.9165 17.1309 25.8763Z" fill="#5D2B64"/>
<path d="M17.1312 25.8763C17.2074 25.3482 17.2572 24.7172 17.3386 24.2192C17.3542 24.2487 17.3366 24.7906 17.3463 24.8874C17.4572 24.8843 17.5538 23.877 17.7366 23.6875C17.5578 24.3372 17.3805 25.015 17.3624 25.6959C17.3412 26.4978 17.3424 27.3138 17.3442 28.1182C17.3474 29.5081 17.4442 30.5935 16.097 31.4001C15.7741 31.5935 15.0393 31.7311 14.9393 31.8615C14.7826 32.1251 14.6533 32.3386 14.4467 32.5677L14.2369 32.8201C14.1252 32.9508 14.0114 33.0605 13.8671 33.1557C13.7961 33.2056 13.6974 33.2792 13.6234 33.3184C13.3427 33.4827 12.7853 33.6984 12.4657 33.7312C12.4012 33.745 12.3363 33.7568 12.271 33.7665C11.3914 33.8947 10.3608 33.684 9.64903 33.1499C9.27923 32.9425 8.7127 32.2059 8.53903 31.8011C8.47759 31.7504 8.23837 31.7338 8.09729 31.6908C7.94217 31.6406 7.80788 31.586 7.65723 31.5251C7.83664 31.4514 8.20955 31.4603 8.40644 31.4738C8.88655 31.4892 9.37415 31.4688 9.85419 31.4716C9.97983 31.4721 10.3971 31.4638 10.4965 31.4798C10.706 31.4804 10.9155 31.4757 11.1247 31.4658C12.1176 31.4164 12.867 31.1224 13.5508 30.374C14.3619 29.486 14.3673 28.4878 14.3396 27.3621C14.3294 26.9504 14.3615 26.5166 14.3384 26.0952C14.3592 26.0097 14.3634 25.997 14.3403 25.9127C15.2256 25.8655 16.2067 25.9165 17.1312 25.8763Z" fill="#121A3E"/>
<path d="M8.71563 31.7819C8.94194 31.6884 14.7802 31.7819 14.7755 31.7786C14.855 31.7808 14.8969 31.7758 14.9389 31.8613C14.7822 32.125 14.6529 32.3384 14.4463 32.5676L14.2366 32.8199C14.1248 32.9506 14.0111 33.0604 13.8667 33.1555C13.7958 33.2054 13.6971 33.279 13.6231 33.3182C13.3424 33.4826 12.785 33.6982 12.4654 33.731C12.4009 33.7448 12.336 33.7567 12.2707 33.7663C11.3911 33.8946 10.3604 33.6839 9.64869 33.1497C9.2789 32.9423 8.71237 32.2058 8.5387 31.8009L8.60356 31.7568L8.71563 31.7819Z" fill="#B88FA8"/>
<path d="M9.52527 32.7451C10.2711 33.3587 11.1335 33.6149 12.0966 33.5501C12.206 33.6138 12.4298 33.6888 12.4654 33.7304C12.4009 33.7442 12.336 33.7561 12.2707 33.7657C11.3911 33.894 10.3604 33.6833 9.6487 33.1491C9.71358 33.1235 9.74847 33.1135 9.80426 33.0705L9.78479 33.0749C9.78958 33.0598 9.79438 33.0443 9.79921 33.0289C9.77756 33.0167 9.75616 33.0041 9.73501 32.9908C9.64266 32.9337 9.55089 32.8554 9.52527 32.7451Z" fill="#121A3E"/>
<path d="M14.1081 32.6045C14.1048 32.6892 14.0963 32.7134 14.1419 32.7815C14.1763 32.7997 14.1975 32.8146 14.2364 32.8201C14.1247 32.9509 14.0109 33.0606 13.8666 33.1557C13.7956 33.2057 13.6969 33.2793 13.6229 33.3185C13.3422 33.4828 12.7848 33.6985 12.4652 33.7313C12.4296 33.6896 12.2059 33.6146 12.0964 33.5509C12.5854 33.5024 12.9912 33.3485 13.4299 33.1411C13.7436 32.9578 13.8537 32.8651 14.1081 32.6045Z" fill="#121A3E"/>
<path d="M13.588 33.2316L13.7087 33.1122C13.7989 33.092 13.7606 33.0896 13.8668 33.1549C13.7959 33.2048 13.6972 33.2785 13.6232 33.3176L13.588 33.2316Z" fill="#121A3E"/>
<path d="M8.5387 31.801L8.60356 31.7568L8.71563 31.7819C8.92992 32.0674 9.12734 32.35 9.38349 32.6012C9.42111 32.6382 9.49413 32.7063 9.52526 32.7457C9.55088 32.856 9.64265 32.9344 9.73501 32.9914C9.75616 33.0047 9.77756 33.0174 9.7992 33.0295C9.79438 33.0449 9.78958 33.0604 9.78478 33.0756L9.80425 33.0711C9.74846 33.1142 9.71358 33.1241 9.64869 33.1497C9.2789 32.9424 8.71237 32.2058 8.5387 31.801Z" fill="#121A3E"/>
<path d="M14.7757 31.7783C14.8552 31.7805 14.897 31.7756 14.9391 31.8611C14.7824 32.1247 14.6531 32.3381 14.4465 32.5673L14.2367 32.8196C14.1978 32.8141 14.1766 32.7992 14.1422 32.781C14.0966 32.7129 14.1051 32.6886 14.1084 32.604L14.3317 32.3635C14.496 32.163 14.625 31.9898 14.7757 31.7783Z" fill="#121A3E"/>
<path d="M14.3317 32.3633C14.3038 32.4703 14.2673 32.5229 14.3049 32.6037C14.3732 32.6115 14.3823 32.6004 14.4465 32.5671L14.2367 32.8194C14.1978 32.8139 14.1766 32.799 14.1422 32.7808C14.0966 32.7127 14.1051 32.6884 14.1084 32.6037L14.3317 32.3633Z" fill="#121A3E"/>
<path d="M7.65723 31.5243C7.83664 31.4507 8.20955 31.4595 8.40644 31.473C8.88655 31.4885 9.37415 31.468 9.85419 31.4708C9.97983 31.4714 10.3971 31.4631 10.4965 31.4791C9.8861 31.5513 8.59617 31.3875 8.13907 31.6178L8.09729 31.69C7.94217 31.6398 7.80788 31.5852 7.65723 31.5243Z" fill="#412E58"/>
<path d="M6.25193 24.7402L6.29826 24.9821C6.36659 25.2879 6.43945 25.5882 6.46248 25.902L14.3203 25.9034L14.34 25.9122C14.3631 25.9966 14.3589 26.0093 14.3381 26.0948C13.5586 26.161 12.3413 26.1257 11.5223 26.1257L6.50795 26.1251C6.50624 26.6008 6.50743 27.1047 6.51868 27.5911C6.53817 28.4347 6.40366 29.4608 6.63885 30.266C6.6905 30.4428 7.09146 30.7194 7.22766 30.8653C7.34439 30.9902 7.46763 31.1375 7.58353 31.2605C7.75919 31.2861 8.27018 31.3829 8.40613 31.4734C8.20924 31.4598 7.83632 31.451 7.65691 31.5246C6.02931 30.6709 6.1464 29.4175 6.16038 27.8048C6.16727 27.0101 6.18459 26.1414 6.12985 25.353L6.05719 24.8392C6.19317 24.8566 6.19102 24.8505 6.25193 24.7402Z" fill="#121A3E"/>
<path d="M6.25193 24.7402L6.29826 24.9821C6.26743 25.0455 6.15304 25.3268 6.12985 25.353L6.05719 24.8392C6.19317 24.8566 6.19102 24.8505 6.25193 24.7402Z" fill="#121A3E"/>
<path d="M9.97103 34.2216C10.4996 34.1918 11.0382 34.2349 11.5681 34.2343C12.3158 34.234 13.0665 34.1924 13.8128 34.2015C15.0493 34.2164 21.6051 34.4075 22.297 35.0525C22.3161 35.0702 22.3243 35.0875 22.3351 35.1107C22.1923 35.4212 19.8482 35.6824 19.4304 35.6995C18.6737 35.7273 17.7512 35.8252 16.9692 35.8715C16.8109 35.8624 16.1929 35.9049 15.9853 35.9104L13.3018 35.9871C10.3578 36.0362 7.41315 35.949 4.47722 35.7259C3.99276 35.6876 1.36235 35.48 1.19373 35.1223C1.19858 35.0958 1.19825 35.0644 1.2167 35.0442C1.75294 34.4566 6.70527 34.3534 7.64062 34.287C7.8801 34.2958 8.28149 34.2674 8.53815 34.2583C9.01571 34.2431 9.49333 34.2307 9.97103 34.2216Z" fill="#CCCDE2"/>
</svg>
