<svg width="73" height="94" viewBox="0 0 73 94" fill="none" xmlns="http://www.w3.org/2000/svg">
<path d="M33.2742 1.24625C38.2373 -0.112433 42.9767 -0.392464 48.0471 0.565719C48.6438 0.67848 49.6322 0.847406 50.1821 1.02771C51.2827 1.28952 52.3625 1.63198 53.4129 2.05221C55.2365 2.77493 59.3937 4.91718 60.7518 6.19176C61.3346 6.60089 62.6215 7.59061 63.0879 8.11165C63.5505 8.44993 65.6659 10.6573 65.9284 11.1249C66.3426 11.5535 66.7106 12.0244 67.0265 12.5297C67.1944 12.7704 67.4155 13.0665 67.5396 13.324C68.3722 14.5409 69.9086 17.0406 70.3752 18.3649C70.6827 19.0972 70.9196 19.7702 71.1795 20.5173C71.4503 21.4088 72.2776 24.0112 72.3129 24.7882C73.411 30.0333 72.6981 36.6704 70.7612 41.6205C70.5466 42.2455 69.9331 43.8373 69.564 44.3327C69.102 45.2157 68.1204 46.901 67.5141 47.6875C67.2459 48.132 66.8766 48.6977 66.5415 49.0921C66.0023 49.9454 64.9426 50.9445 64.2262 51.7173C63.8978 52.0894 63.5651 52.4577 63.2281 52.8221C60.9779 55.207 60.5197 55.8853 59.0909 58.8313C58.7664 59.5763 58.4075 60.3632 58.114 61.1165C58.0767 61.2274 57.8977 61.7847 57.8567 61.8502C57.3792 62.3449 57.1271 64.9753 56.8375 64.9832C56.812 64.7305 56.8582 63.3155 56.8173 63.2385C56.6049 64.5389 56.4747 66.1864 56.2758 67.5653C53.8619 67.6705 51.2999 67.5373 48.9885 67.6604L48.9369 67.6373L28.419 67.6337C28.3588 66.8143 28.1686 66.0302 27.9902 65.2316L27.8692 64.6001C27.7101 64.8882 27.7157 64.904 27.3607 64.8586C26.6241 61.2187 24.9313 56.9494 22.4363 54.1421C20.3444 51.7883 18.4884 49.9911 16.7361 47.3493C12.9495 41.6509 11.1502 34.8618 11.6174 28.036C11.73 26.442 12.0857 24.8815 12.4286 23.3576C13.2934 19.5151 14.6747 16.4189 16.9337 13.2001C17.8328 11.919 18.9886 10.2775 20.1967 9.2299C20.5554 8.80722 21.6867 7.75817 22.1135 7.38713C22.2714 7.21222 23.2771 6.42916 23.5021 6.24814C24.8793 5.02425 28.2253 3.20942 29.9648 2.46574C30.5951 2.12753 31.9075 1.67303 32.6105 1.42021L33.2742 1.24625Z" fill="#FF0266"/>
<path d="M44.2839 19.1585C44.9121 18.8199 46.1643 17.6794 46.8969 17.1525C49.6949 15.1406 53.4471 14.5618 56.8134 15.1589C57.2606 15.7193 59.2616 15.9117 59.2082 16.4242L59.0869 16.4959C60.0864 16.9226 60.751 17.2574 61.6449 17.8928C61.9438 18.1053 62.3727 18.4493 62.6617 18.6304C63.2494 18.4527 63.5737 18.8054 64.0126 19.1756L64.9547 20.3123C64.8561 20.5117 64.843 20.5567 64.6585 20.6757C66.3569 23.1411 67.3461 25.7613 67.289 28.8002C67.2726 29.6706 67.1556 30.1536 67.066 30.9654C66.7199 32.1929 66.3586 33.5028 65.7969 34.6496C65.9633 34.8788 65.9941 34.9907 66.0927 35.2541C65.687 35.8532 65.2997 36.5872 64.8694 37.1225C60.57 43.8698 48.3841 43.9552 44.038 37.2511C44.0098 37.1447 43.1637 36.1043 42.9893 35.8144C42.02 35.8431 41.0503 35.8577 40.0806 35.8582C39.8855 36.2143 39.2792 36.9588 38.9942 37.388C38.8579 37.3712 38.7036 37.2848 38.5757 37.2243C36.9314 38.8993 34.9529 40.296 32.7019 41.0048C29.5096 42.0016 26.0531 41.7006 23.0812 40.1668C19.5623 38.3235 17.5304 35.5748 16.3558 31.8357C16.1923 31.1391 16.0554 30.3086 15.9447 29.596C15.8933 27.0532 16.0392 26.1789 16.8355 23.8082C16.9398 23.6481 17.3852 22.7118 17.5281 22.4519C18.1474 21.3083 18.9228 20.2564 19.8319 19.3264C22.1695 16.9619 25.3459 15.6158 28.6706 15.5809C32.5504 15.5378 35.4524 16.9432 38.1678 19.5897L38.3283 19.3882C38.7437 19.2026 38.9959 19.1833 39.4449 19.1959C40.6407 19.1717 41.837 19.1714 43.0328 19.1949C43.4183 19.2022 43.9154 19.2326 44.2839 19.1585Z" fill="#CCCDE2"/>
<path d="M64.2915 36.9418L64.4239 36.9649C64.8228 36.6746 64.907 36.2093 65.1462 36.2209C65.1539 36.5417 64.8195 36.7031 64.7618 37.1074L64.8684 37.1227C60.569 43.87 48.3832 43.9554 44.037 37.2512C44.2322 37.2886 44.6008 37.288 44.7197 37.3485C44.778 37.408 44.8367 37.467 44.8958 37.5257C47.478 40.0892 50.6099 41.6107 54.2898 41.5818C58.622 41.5476 61.3252 39.9544 64.2915 36.9418Z" fill="#121A3E"/>
<path d="M44.2841 19.1585C44.9123 18.8199 46.1645 17.6794 46.8971 17.1525C49.6951 15.1406 53.4473 14.5618 56.8136 15.1589C57.2608 15.7193 59.2618 15.9117 59.2084 16.4242L59.0871 16.4959C55.2344 15.1479 52.3059 15.2319 48.5126 16.9815C47.0193 17.6703 45.9403 18.6538 44.7425 19.7508C43.6883 19.7582 38.7897 19.8802 38.168 19.5897L38.3285 19.3882C38.7439 19.2026 38.9961 19.1833 39.4451 19.1959C40.6409 19.1717 41.8372 19.1714 43.033 19.1949C43.4185 19.2022 43.9156 19.2326 44.2841 19.1585Z" fill="#121A3E"/>
<path d="M39.4454 19.1961C40.6412 19.172 41.8375 19.1716 43.0333 19.1951L43.2832 19.3519C43.1324 19.4297 42.447 19.3952 42.2589 19.3744L42.243 19.3126L42.5292 19.2922C42.0121 19.1383 40.2078 19.3462 39.4454 19.1961Z" fill="#121A3E"/>
<path d="M39.8073 35.3815C40.9275 35.3767 42.0658 35.3606 43.1842 35.3682C43.7045 36.0219 44.2168 36.6818 44.7211 37.3478C44.6021 37.2873 44.2336 37.2879 44.0383 37.2505C44.0101 37.1442 43.1641 36.1038 42.9897 35.8139C42.0203 35.8426 41.0506 35.8572 40.0809 35.8577C39.8859 36.2138 39.2795 36.9583 38.9946 37.3875C38.8583 37.3706 38.704 37.2842 38.576 37.2238C39.0271 36.6733 39.5281 36.0393 39.8073 35.3815Z" fill="#121A3E"/>
<path d="M62.6613 18.6314C63.2489 18.4537 63.5732 18.8064 64.0121 19.1766L64.9542 20.3133C64.8556 20.5127 64.8425 20.5577 64.658 20.6767C63.9917 19.8716 63.4225 19.3321 62.6613 18.6314Z" fill="#121A3E"/>
<path d="M65.7968 34.6494C65.9632 34.8786 65.994 34.9905 66.0926 35.2539C65.6869 35.853 65.2996 36.587 64.8693 37.1223L64.7627 37.107C64.8204 36.7027 65.1548 36.5413 65.1471 36.2205C64.9079 36.2089 64.8237 36.6742 64.4248 36.9645L64.2924 36.9414C64.9701 36.0867 65.2908 35.6136 65.7968 34.6494Z" fill="#121A3E"/>
<path d="M28.2125 17.4067C30.6463 17.0764 34.0582 18.3916 35.9366 19.9424C36.5363 20.4377 37.0852 21.1095 37.7221 21.5188C38.9153 21.58 40.5157 21.5154 41.7396 21.534C42.7167 21.5488 44.7452 21.579 45.6086 21.449C46.106 21.0865 46.8154 20.358 47.3159 19.9227C49.3587 18.1765 52.3535 17.2622 55.0129 17.43C61.1782 17.819 65.8427 23.1326 65.3831 29.3295C65.1873 32.3266 63.8059 35.1224 61.5442 37.0988C59.1054 39.1958 56.4643 39.989 53.2886 39.7482C50.1546 39.419 47.8485 38.1316 45.8036 35.7397C45.2211 35.0583 44.6872 34.2241 44.0851 33.596C42.8874 33.5469 40.0749 33.5354 38.9455 33.6377C38.3995 34.2317 37.881 35.1279 37.3422 35.7736C35.4535 38.0403 33.0065 39.3774 30.1048 39.712C24.0413 40.4113 18.3644 35.7402 17.8139 29.5823C17.5412 26.6175 18.4792 23.6685 20.4145 21.406C22.4409 19.0039 25.0729 17.6714 28.2125 17.4067Z" fill="#121A3E"/>
<path d="M50.7043 36.5944C46.8341 34.7565 44.8441 30.4034 45.9862 26.274C47.1284 22.1446 51.0724 19.433 55.337 19.845C59.6016 20.257 62.9535 23.6736 63.284 27.9453C63.6145 32.217 60.8279 36.1084 56.6774 37.1715C56.2351 37.7522 53.8251 37.7451 53.152 37.6031L53.8992 37.5784C52.8086 37.4452 51.9707 37.6208 51.0576 37.0764C51.396 37.1955 51.7412 37.2608 52.0916 37.3361C51.6607 37.1523 50.8617 37.0184 50.7043 36.5944Z" fill="#FFDE03"/>
<path d="M56.6759 37.1718C56.2335 37.7525 53.8235 37.7455 53.1504 37.6035L53.8976 37.5788C52.807 37.4455 51.9691 37.6211 51.056 37.0767C51.3944 37.1958 51.7396 37.2611 52.09 37.3364C51.6591 37.1526 50.8602 37.0187 50.7027 36.5947C52.5651 37.4792 54.6786 37.6834 56.6759 37.1718Z" fill="#121A3E"/>
<path d="M52.2909 26.5835C53.224 26.5051 54.2621 26.5798 55.148 26.5243C59.9981 26.2204 57.1628 29.225 55.9643 31.4335C55.0257 33.1629 53.7983 33.3874 52.827 31.5087C52.1097 30.3204 49.3137 26.6321 52.2909 26.5835Z" fill="#5D2B64"/>
<path d="M52.827 31.5091C52.1097 30.3208 49.3137 26.6326 52.2909 26.584C53.2741 26.6449 54.5807 26.6155 55.5836 26.5969C54.8228 28.1225 53.6934 29.8317 52.827 31.5091Z" fill="#121A3E"/>
<path d="M24.5925 36.3731C22.52 35.2438 20.9595 33.3626 20.2327 31.1171C18.7904 26.7002 21.4527 21.6161 25.8754 20.2705C28.4391 19.4905 30.6224 19.7279 32.9976 20.9529C34.2552 21.5811 35.3526 22.5474 36.0594 23.7722C37.2797 25.4717 37.7457 27.8738 37.4041 29.9316C37.0317 32.3045 35.7253 34.4296 33.7763 35.8332C33.6101 35.9505 33.4414 36.064 33.2704 36.174C33.0132 37.3904 29.0215 37.8623 28.1016 37.5321C28.6193 37.5758 28.7908 37.5676 29.3001 37.521C28.7971 37.5322 27.7613 37.5844 27.3485 37.3135C27.2887 37.2908 26.5881 37.131 26.4469 37.0961C25.7018 36.912 25.2787 36.7156 24.5925 36.3731Z" fill="#DA9A22"/>
<path d="M24.5925 36.3731C22.52 35.2438 20.9595 33.3626 20.2327 31.1171C18.7904 26.7002 21.4527 21.6161 25.8754 20.2705C28.4391 19.4905 30.6224 19.7279 32.9976 20.9529C31.8835 22.9715 31.0848 24.556 29.7311 26.5144C29.0531 26.5296 26.6218 26.4917 26.1432 26.5841L25.8414 26.6377C25.3144 26.7488 25.1103 26.9512 24.9494 27.4679C24.8991 28.2789 26.4433 30.8449 26.9502 31.5161L26.9387 31.5584C26.6659 31.7328 26.4397 32.3708 26.3015 32.6947C25.842 33.7721 24.8357 35.2633 24.5925 36.3731Z" fill="#FFDE03"/>
<path d="M36.0586 23.7725C37.2789 25.4719 37.7448 27.8741 37.4033 29.9319C37.0309 32.3048 35.7245 34.4299 33.7754 35.8335C33.6092 35.9507 33.4406 36.0643 33.2695 36.1743C33.0124 37.3906 29.0207 37.8626 28.1008 37.5324C28.6184 37.5761 28.79 37.5679 29.2993 37.5213C28.7962 37.5325 27.7604 37.5847 27.3477 37.3137L28.3198 37.3421C28.5229 37.0192 28.8448 35.8796 29.2027 35.261C29.6787 34.4381 30.204 33.59 30.6735 32.7727L33.8921 27.1068C34.3638 26.2899 35.2254 23.9572 36.0586 23.7725Z" fill="#FFDE03"/>
<path d="M33.2695 36.1748C33.0124 37.3912 29.0207 37.8631 28.1008 37.5329C28.6184 37.5766 28.79 37.5685 29.2993 37.5218C28.7962 37.5331 27.7604 37.5853 27.3477 37.3143L28.3198 37.3427C30.5869 37.3445 31.2634 37.1946 33.2695 36.1748Z" fill="#121A3E"/>
<path d="M29.7309 26.5146C30.6563 26.5243 32.025 26.4411 31.972 27.7264C31.9663 27.8649 31.948 27.9596 31.8973 28.0858C31.6975 28.6418 31.1484 29.4452 30.808 29.9512C29.8374 31.7868 28.8738 34.2871 26.9385 31.5587L26.95 31.5164C26.4431 30.8452 24.8989 28.2791 24.9492 27.4681C25.1101 26.9515 25.3142 26.749 25.8412 26.638L26.143 26.5843C26.6216 26.492 29.0529 26.5299 29.7309 26.5146Z" fill="#5D2B64"/>
<path d="M25.8412 26.6386L26.143 26.585C27.1394 26.606 28.8169 26.6386 29.8016 26.5873C29.4477 27.2967 27.3395 31.0797 26.95 31.517C26.4431 30.8458 24.8989 28.2798 24.9492 27.4688C25.1101 26.9521 25.3142 26.7496 25.8412 26.6386Z" fill="#121A3E"/>
<path d="M24.9491 27.4679C25.1101 26.9512 25.3141 26.7487 25.8412 26.6377C25.6902 26.8768 25.5493 26.8406 25.4284 27.0829C25.3403 27.2596 25.2169 27.4689 25.0404 27.5638L24.9491 27.4679Z" fill="#121A3E"/>
<path d="M30.8081 29.9506L30.7557 29.8651C30.89 29.384 31.39 28.3365 31.7467 28.0342L31.8974 28.0852C31.6976 28.6412 31.1485 29.4446 30.8081 29.9506Z" fill="#412E58"/>
<path d="M50.1832 1.02734C51.2838 1.28916 52.3636 1.63162 53.414 2.05184C55.2376 2.77457 59.3948 4.91681 60.7529 6.19139C61.3357 6.60053 62.6226 7.59025 63.089 8.11128C63.5516 8.44957 65.667 10.657 65.9295 11.1246C66.3437 11.5532 66.7117 12.024 67.0277 12.5293C67.1955 12.7701 67.4166 13.0662 67.5407 13.3236C68.3733 14.5405 69.9098 17.0402 70.3763 18.3645C70.6838 19.0969 70.9207 19.7698 71.1807 20.5169C71.4514 21.4084 72.2787 24.0108 72.314 24.7878C73.4121 30.0329 72.6993 36.67 70.7623 41.6201C70.5477 42.2452 69.9342 43.8369 69.5651 44.3323C69.1031 45.2153 68.1215 46.9006 67.5152 47.6871C67.2471 48.1317 66.8777 48.6973 66.5426 49.0918C66.0034 49.9451 64.9437 50.9441 64.2273 51.7169C63.8989 52.089 63.5662 52.4573 63.2292 52.8217C60.979 55.2066 60.5208 55.8849 59.092 58.8309C58.7675 59.5759 58.4086 60.3628 58.1151 61.1161C58.0778 61.227 57.8988 61.7843 57.8578 61.8499C57.3803 62.3445 57.1282 64.9749 56.8386 64.9828C56.8131 64.7301 56.8593 63.3152 56.8184 63.2381C56.606 64.5386 56.4758 66.186 56.2769 67.565C53.863 67.6701 51.301 67.5369 48.9896 67.66L48.938 67.637C49.0463 67.3345 49.072 65.0102 49.1231 64.5105C49.3952 61.7174 50.0876 58.9813 51.1768 56.395C52.5851 53.0265 54.801 50.264 57.2649 47.6244C59.0813 45.6786 60.6499 43.5409 61.8953 41.1829C55.3531 45.3221 47.4507 43.9192 43.0993 37.4117L40.0235 37.456C39.9907 37.5031 39.9575 37.5499 39.924 37.5965C37.6713 40.7329 35.074 42.7232 31.1755 43.3561C27.6479 43.9228 24.0403 43.0511 21.1606 40.936C19.3797 39.6431 18.1288 38.1115 17.1319 36.1656C16.9595 35.8293 16.5984 35.1128 16.541 34.7507C16.6766 34.2663 15.757 32.9249 15.9441 32.4216C16.1547 32.3661 16.2151 32.4601 16.4608 32.5887C16.3512 32.3022 16.2913 32.1326 16.3566 31.8356C17.5313 35.5747 19.5632 38.3234 23.082 40.1666C26.0539 41.7004 29.5104 42.0015 32.7027 41.0047C34.9538 40.2958 36.9323 38.8992 38.5765 37.2241C38.7045 37.2846 38.8588 37.371 38.9951 37.3879C39.28 36.9586 39.8864 36.2142 40.0814 35.858C41.0512 35.8576 42.0209 35.843 42.9902 35.8143C43.1646 36.1041 44.0107 37.1446 44.0388 37.2509C48.385 43.9551 60.5708 43.8697 64.8703 37.1224C65.3005 36.5871 65.6878 35.8531 66.0936 35.254C65.9949 34.9906 65.9641 34.8787 65.7978 34.6495C66.3595 33.5026 66.7208 32.1927 67.0668 30.9653C67.1565 30.1534 67.2735 29.6704 67.2898 28.8001C67.3469 25.7612 66.3578 23.1409 64.6594 20.6755C64.8439 20.5566 64.857 20.5116 64.9555 20.3122L64.0134 19.1755L63.8674 18.8735C63.9199 18.8471 63.9922 18.7909 64.0425 18.755C64.073 18.4844 63.9061 17.8046 63.8111 17.5416C62.2344 13.1787 59.7965 8.86374 56.688 5.41041C56.0907 4.74688 55.3789 3.93271 54.6504 3.44105C53.7131 2.80863 52.5433 2.67606 51.4928 2.14855C51.206 2.0373 51.0063 1.96817 50.7105 1.88522C50.977 1.51756 50.962 1.59727 51.3946 1.55083C51.1508 1.36944 50.5579 1.45398 50.1832 1.02734Z" fill="#5D2B64"/>
<path d="M16.3561 31.8359C17.5307 35.5751 19.5627 38.3237 23.0815 40.167C26.0534 41.7008 29.5099 42.0019 32.7022 41.005C34.9532 40.2962 36.9317 38.8996 38.576 37.2245C38.7039 37.285 38.8583 37.3714 38.9946 37.3882C36.6498 40.8221 33.2117 42.0197 29.1677 42.1856C24.2048 42.3891 20.5606 40.1608 17.8012 36.118C17.4401 35.5889 17.1235 35.504 17.0997 34.7582L17.1754 34.6865L17.3158 34.9226L17.3889 34.8773C17.3902 34.8354 17.3904 34.682 17.3725 34.6543C16.9674 34.0287 16.6594 33.3134 16.4602 32.589C16.3506 32.3026 16.2908 32.133 16.3561 31.8359Z" fill="#121A3E"/>
<path d="M71.8798 25.0314L71.9316 24.3896L72.0353 24.4221C72.2031 24.6716 72.2196 24.8034 72.2888 25.0944L72.3226 25.1059L72.3111 24.7879C73.4092 30.033 72.6963 36.6701 70.7594 41.6202L70.5455 41.6286C70.4159 41.4375 70.4821 41.3231 70.5081 41.0391C71.7163 37.4991 72.3622 34.5016 72.3269 30.7324C72.3212 30.0896 72.3817 29.3129 72.3349 28.6897C72.2456 27.5087 71.9561 26.2038 71.8798 25.0314Z" fill="#121A3E"/>
<path d="M64.9536 20.3125C67.0407 22.7372 67.8729 25.9995 67.8036 29.1859C67.7994 29.3824 67.6528 30.3914 67.5724 30.5273C67.2891 30.8001 67.1693 31.64 66.9705 32.0799C67.0327 31.6866 67.1623 31.3131 67.0649 30.9656C67.1546 30.1538 67.2716 29.6707 67.2879 28.8004C67.345 25.7615 66.3559 23.1413 64.6575 20.6758C64.8419 20.5569 64.8551 20.5119 64.9536 20.3125Z" fill="#121A3E"/>
<path d="M50.1812 1.02734C51.2818 1.28916 52.3616 1.63162 53.412 2.05184C55.2357 2.77457 59.3928 4.91681 60.7509 6.19139C60.4592 6.26484 60.3689 6.27989 60.1035 6.14682C58.8748 5.02504 54.4436 2.87552 52.7664 2.29429C52.4951 2.20032 51.7957 2.15481 51.4909 2.14855C51.204 2.0373 51.0043 1.96817 50.7085 1.88522C50.975 1.51756 50.96 1.59727 51.3926 1.55083C51.1488 1.36944 50.5559 1.45398 50.1812 1.02734Z" fill="#121A3E"/>
<path d="M61.7942 7.61523C62.0176 7.69595 62.9862 8.1156 63.0876 8.11114C63.5503 8.44942 65.6656 10.6568 65.9281 11.1244C66.3423 11.553 66.7103 12.0239 67.0263 12.5292C66.8401 12.7636 66.7995 12.8341 66.7972 13.1714C65.7402 12.159 65.5359 11.6561 64.6743 10.5106C64.3911 10.1341 63.5736 9.43129 63.177 8.96045C62.9685 8.85006 61.9631 7.83521 61.7942 7.61523Z" fill="#412E58"/>
<path d="M61.7942 7.61523C62.0176 7.69595 62.9862 8.1156 63.0876 8.11114C63.5503 8.44942 65.6656 10.6568 65.9281 11.1244C65.8794 11.1244 65.8308 11.1243 65.7822 11.1242C65.1587 10.4992 63.9395 9.32364 63.177 8.96045C62.9685 8.85006 61.9631 7.83521 61.7942 7.61523Z" fill="#121A3E"/>
<path d="M64.1169 50.9795C64.6836 49.994 66.3096 48.0708 67.1479 47.2939C67.2499 47.4778 67.2875 47.6489 67.5138 47.6867C67.2456 48.1312 66.8763 48.6969 66.5412 49.0914C66.002 49.9446 64.9423 50.9437 64.2259 51.7165L64.2396 51.4428L64.12 51.365C63.7398 51.4808 63.6956 51.7365 63.3254 51.8522C63.5764 51.5545 63.8517 51.2656 64.1169 50.9795Z" fill="#121A3E"/>
<path d="M66.5412 49.0918C66.002 49.9451 64.9423 50.9441 64.2259 51.7169L64.2396 51.4432L64.12 51.3655C63.7398 51.4812 63.6956 51.7369 63.3254 51.8526C63.5764 51.5549 63.8517 51.266 64.1169 50.9799C64.978 50.388 65.7486 49.5896 66.5412 49.0918Z" fill="#121A3E"/>
<path d="M62.3389 53.1127C62.6019 53.044 62.7058 52.8717 62.9515 52.7314L63.227 52.8215C60.9768 55.2064 60.5185 55.8847 59.0897 58.8308C58.9353 58.9431 58.7831 59.1449 58.6673 59.297L58.7764 59.1373L58.6966 59.1778C58.7609 58.8599 58.8107 58.6501 58.8078 58.3251L58.8069 58.2629C59.1427 57.2916 60.5733 55.3167 61.2493 54.4207C61.5458 54.0277 62.0765 53.532 62.3389 53.1127Z" fill="#121A3E"/>
<path d="M67.0652 30.9656C67.1625 31.3131 67.033 31.6866 66.9708 32.0799C67.1696 31.64 67.2894 30.8001 67.5727 30.5273C67.4624 31.9934 66.9433 34.0387 66.0919 35.2543C65.9933 34.9909 65.9625 34.879 65.7961 34.6498C66.3579 33.503 66.7191 32.1931 67.0652 30.9656Z" fill="#121A3E"/>
<path d="M68.9504 44.552C69.1808 43.8693 69.585 41.923 69.9506 41.4808C70.3855 41.5228 70.3416 41.3997 70.5086 41.0391C70.4827 41.323 70.4165 41.4375 70.5461 41.6285L70.7599 41.6201C70.5454 42.2452 69.9319 43.8369 69.5627 44.3323C69.2491 44.3487 69.2108 44.3684 68.9504 44.552Z" fill="#121A3E"/>
<path d="M67.5394 13.3232C68.372 14.5401 69.9084 17.0398 70.375 18.3641C69.961 18.2816 69.6849 17.6101 69.4056 17.2211C68.7558 15.9842 68.1365 14.9599 67.3762 13.7893C67.3808 13.5974 67.4525 13.4952 67.5394 13.3232Z" fill="#121A3E"/>
<path d="M70.8701 21.0311C70.8866 20.8805 70.9032 20.7604 70.9306 20.6113L71.1797 20.5176C71.4505 21.4091 72.2778 24.0115 72.3131 24.7885L72.3246 25.1065L72.2908 25.0951C72.2216 24.804 72.2051 24.6722 72.0373 24.4227L71.9336 24.3903L71.8818 25.0321C71.6751 24.014 71.2683 21.93 70.8701 21.0311Z" fill="#121A3E"/>
<path d="M69.4055 17.2217C69.6849 17.6107 69.961 18.2821 70.375 18.3646C70.6825 19.097 70.9194 19.77 71.1793 20.517L70.9302 20.6108C70.9028 20.7598 70.8862 20.8799 70.8697 21.0306C70.0639 19.199 69.8616 19.2083 69.4055 17.2217Z" fill="#121A3E"/>
<path d="M68.9512 44.5517C69.2116 44.3681 69.2499 44.3484 69.5635 44.332C69.1015 45.215 68.1199 46.9003 67.5136 47.6868C67.2873 47.649 67.2497 47.478 67.1477 47.2941C67.4638 46.9173 68.7555 44.9863 68.9512 44.5517Z" fill="#121A3E"/>
<path d="M60.7502 6.19106C61.3331 6.60019 62.62 7.58991 63.0864 8.11095C62.9849 8.11541 62.0164 7.69576 61.7929 7.61504C61.2153 7.03417 60.6522 6.68437 60.1028 6.14648C60.3682 6.27955 60.4586 6.2645 60.7502 6.19106Z" fill="#121A3E"/>
<path d="M63.3248 51.8524C63.695 51.7367 63.7392 51.481 64.1193 51.3652L64.2389 51.443L64.2253 51.7167C63.8969 52.0888 63.5641 52.4571 63.2272 52.8215L62.9517 52.7314C62.7061 52.8717 62.6021 53.044 62.3391 53.1127C62.5285 52.6675 62.9814 52.193 63.3248 51.8524Z" fill="#121A3E"/>
<path d="M58.1135 61.1157L57.9801 60.8312C57.9643 60.2467 58.5178 58.77 58.8075 58.2627L58.8085 58.3249C58.8113 58.6499 58.7615 58.8597 58.6973 59.1776L58.777 59.1371L58.6679 59.2968C58.7837 59.1446 58.9359 58.9429 59.0904 58.8305C58.7659 59.5755 58.4069 60.3624 58.1135 61.1157Z" fill="#121A3E"/>
<path d="M67.0252 12.5293C67.193 12.77 67.4141 13.0661 67.5382 13.3236C67.4513 13.4955 67.3797 13.5977 67.3751 13.7897C67.189 13.573 66.9948 13.3763 66.7961 13.1715C66.7984 12.8342 66.839 12.7637 67.0252 12.5293Z" fill="#121A3E"/>
<path d="M22.1135 7.38672L22.1668 7.54636C22.0192 7.82675 21.8926 8.05385 21.7262 8.32315C21.2874 8.8655 20.0303 9.85314 19.8359 10.5883C18.7479 11.9749 17.5899 13.3562 16.6146 14.8231C16.0077 15.7359 15.5435 16.8446 15.0558 17.8358C9.93998 28.2352 11.792 40.7 19.1163 49.5457C20.2961 50.9707 21.6724 52.2386 22.8967 53.6242C23.9519 54.8076 25.0242 56.6603 25.7891 58.0733C26.8914 60.1097 27.3453 62.3776 27.8692 64.5997C27.7101 64.8877 27.7157 64.9036 27.3607 64.8582C26.6241 61.2183 24.9313 56.949 22.4363 54.1417C20.3444 51.7879 18.4884 49.9907 16.7361 47.3489C12.9495 41.6505 11.1502 34.8614 11.6174 28.0356C11.73 26.4416 12.0857 24.8811 12.4286 23.3572C13.2934 19.5147 14.6747 16.4185 16.9337 13.1997C17.8328 11.9186 18.9886 10.2771 20.1967 9.22949C20.5554 8.80682 21.6867 7.75777 22.1135 7.38672Z" fill="#121A3E"/>
<path d="M22.1138 7.38672L22.1671 7.54636C22.0196 7.82675 21.893 8.05385 21.7265 8.32315C21.4654 8.4573 20.2796 9.20768 20.1971 9.22949C20.5558 8.80682 21.6871 7.75777 22.1138 7.38672Z" fill="#121A3E"/>
<path d="M15.9531 24.5399C15.961 24.3286 16.1332 23.9208 16.2112 23.705C19.1554 15.5611 29.2665 12.3253 36.4161 17.1793C37.2269 17.7298 37.9405 18.3993 38.6688 19.0958C40.2757 19.1474 42.786 18.9955 44.2847 19.1584C43.9162 19.2324 43.4191 19.2021 43.0336 19.1948C41.8378 19.1712 40.6415 19.1716 39.4457 19.1958C38.9967 19.1832 38.7445 19.2025 38.3291 19.3881L38.1686 19.5896C35.4532 16.9431 32.5512 15.5377 28.6714 15.5807C25.3467 15.6157 22.1703 16.9617 19.8327 19.3263C18.9236 20.2562 18.1482 21.3082 17.5289 22.4518C17.386 22.7116 16.9405 23.6479 16.8363 23.8081L16.7024 23.842L16.4337 24.5406L16.3692 24.519L16.2378 24.2449C16.1272 24.3304 16.1226 24.3967 16.081 24.5309L15.9531 24.5399Z" fill="#121A3E"/>
<path d="M33.2746 1.24625C38.2377 -0.112433 42.9771 -0.392464 48.0476 0.565719C48.6442 0.67848 49.6326 0.847406 50.1825 1.02771C50.5573 1.45434 51.1502 1.36981 51.3939 1.55119C50.9614 1.59764 50.9763 1.51792 50.7098 1.88559C45.8405 0.325867 39.7686 0.195752 34.8427 1.51418C33.3789 1.90596 31.1102 2.71085 29.6608 3.29042C29.8195 3.13388 29.9227 3.07044 29.9478 2.85507C29.845 2.8105 29.8174 2.80676 29.7337 2.73014C29.9311 2.59693 29.8841 2.66743 29.9652 2.46574C30.5955 2.12753 31.9079 1.67303 32.611 1.42021L33.2746 1.24625Z" fill="#121A3E"/>
<path d="M32.6112 1.42006L33.2748 1.24609L33.543 1.41315L33.5576 1.52332C33.3842 1.61073 33.1834 1.6265 32.9984 1.56738C32.8431 1.51849 32.7911 1.45714 32.6112 1.42006Z" fill="#121A3E"/>
<path d="M23.5031 6.24822C24.8803 5.02433 28.2263 3.2095 29.9658 2.46582C29.8847 2.66751 29.9316 2.59701 29.7343 2.73023C29.8179 2.80684 29.8456 2.81058 29.9483 2.85516C29.9233 3.07053 29.82 3.13396 29.6613 3.2905C27.254 4.51273 25.7123 5.5008 23.584 7.10019C23.4887 6.75046 23.4218 6.5968 23.5031 6.24822Z" fill="#121A3E"/>
<path d="M56.814 15.1592C59.327 15.5276 62.2093 16.9609 63.8671 18.8739L64.0132 19.1759C63.5743 18.8056 63.25 18.4529 62.6623 18.6307C62.3733 18.4496 61.9444 18.1055 61.6455 17.893C60.7516 17.2576 60.087 16.9229 59.0875 16.4962L59.2088 16.4245C59.2622 15.9119 57.2612 15.7195 56.814 15.1592Z" fill="#121A3E"/>
<path d="M15.9524 24.5394L16.0803 24.5304C16.1219 24.3963 16.1265 24.3299 16.2371 24.2445L16.3685 24.5185L16.433 24.5402L16.7017 23.8416L16.8356 23.8076C16.0393 26.1783 15.8934 27.0526 15.9448 29.5954L15.9096 29.7017L15.9151 30.061L15.8328 29.8936C15.7387 29.9939 15.7264 30.0479 15.6646 30.1728L15.5415 30.1772L15.2868 29.3563C15.2234 28.3485 15.296 27.3368 15.5027 26.3483C15.5126 25.8975 15.7912 24.9653 15.9524 24.5394Z" fill="#121A3E"/>
<path d="M15.2869 29.3577C15.2235 28.3499 15.2962 27.3381 15.5028 26.3496C15.6064 27.6786 15.4627 28.3667 15.6935 29.7946C15.7923 29.7382 15.7998 29.7204 15.9097 29.7031L15.9152 30.0624L15.8329 29.895C15.7388 29.9952 15.7265 30.0493 15.6648 30.1741L15.5416 30.1785L15.2869 29.3577Z" fill="#121A3E"/>
<path d="M15.287 29.3574L15.5418 30.1783L15.6649 30.1739C15.7267 30.049 15.739 29.995 15.8331 29.8947L15.9154 30.0621L15.9099 29.7028L15.9451 29.5965C16.0558 30.3091 16.1927 31.1396 16.3562 31.8362C16.2909 32.1332 16.3507 32.3029 16.4603 32.5893C16.2147 32.4608 16.1542 32.3668 15.9437 32.4223C15.7565 32.9255 16.6761 34.2669 16.5405 34.7514C15.8674 33.213 15.3191 31.0429 15.287 29.3574Z" fill="#121A3E"/>
<path d="M22.1135 7.38704C22.2714 7.21213 23.2771 6.42907 23.5021 6.24805C23.4208 6.59663 23.4877 6.75029 23.583 7.10002C22.406 8.02753 20.837 9.4845 19.8359 10.5886C20.0303 9.85345 21.2874 8.86582 21.7262 8.32347C21.8926 8.05417 22.0192 7.82706 22.1668 7.54667L22.1135 7.38704Z" fill="#121A3E"/>
<path d="M48.0345 44.1465L48.2268 44.1522C48.464 44.2716 48.6273 44.5326 48.7924 44.7508C46.6693 47.8883 41.4524 48.2178 38.1043 47.3871C37.5963 47.2017 37.4078 47.0526 37.3123 46.5021C37.5584 45.8085 38.6876 46.247 39.2336 46.3494C42.6551 46.9908 45.2296 46.0436 48.0345 44.1465Z" fill="#121A3E"/>
<path d="M56.2764 67.5647C56.4752 66.1858 56.6055 64.5383 56.8178 63.2379C56.8587 63.3149 56.8126 64.7298 56.8381 64.9826C57.1277 64.9747 57.3798 62.3443 57.8572 61.8496C57.3904 63.5461 56.9272 65.316 56.8802 67.0938C56.8248 69.1877 56.8278 71.3184 56.8326 73.4188C56.8409 77.0479 57.0936 79.882 53.576 81.9882C52.7329 82.493 50.8141 82.8523 50.5529 83.1929C50.1437 83.8813 49.8061 84.4386 49.2667 85.0369L48.7189 85.6958C48.4272 86.0371 48.1302 86.3237 47.7533 86.5721C47.5679 86.7024 47.3102 86.8947 47.1171 86.9969C46.3841 87.4261 44.9286 87.9892 44.0941 88.0749C43.9256 88.1109 43.7561 88.1418 43.5857 88.167C41.2889 88.5019 38.5977 87.9517 36.7393 86.557C35.7737 86.0155 34.2944 84.0922 33.8409 83.0352C33.6805 82.9027 33.0558 82.8595 32.6874 82.7472C32.2824 82.6161 31.9317 82.4735 31.5384 82.3144C27.2884 80.0851 27.5942 76.8124 27.6307 72.6015C27.6487 70.5263 27.6939 68.2581 27.551 66.1995L27.3612 64.858C27.7163 64.9034 27.7107 64.8875 27.8697 64.5995L27.9907 65.231C28.1691 66.0295 28.3594 66.8137 28.4195 67.6331L48.9375 67.6367L48.989 67.6598C51.3005 67.5366 53.8624 67.6698 56.2764 67.5647Z" fill="#5D2B64"/>
<path d="M56.2769 67.5647C56.4758 66.1858 56.6061 64.5383 56.8184 63.2379C56.8593 63.3149 56.8132 64.7298 56.8387 64.9826C57.1283 64.9747 57.3804 62.3443 57.8578 61.8496C57.3909 63.5461 56.9278 65.316 56.8808 67.0938C56.8253 69.1877 56.8284 71.3184 56.8332 73.4188C56.8415 77.0479 57.0942 79.882 53.5766 81.9882C52.7335 82.493 50.8147 82.8523 50.5535 83.1929C50.1443 83.8813 49.8067 84.4386 49.2673 85.0369L48.7195 85.6958C48.4277 86.0371 48.1308 86.3237 47.7538 86.5721C47.5685 86.7024 47.3108 86.8947 47.1177 86.9969C46.3846 87.4261 44.9292 87.9892 44.0947 88.0749C43.9262 88.1109 43.7567 88.1418 43.5863 88.167C41.2895 88.5019 38.5983 87.9517 36.7398 86.557C35.7742 86.0155 34.295 84.0922 33.8415 83.0352C33.681 82.9027 33.0564 82.8595 32.688 82.7472C32.283 82.6161 31.9323 82.4735 31.5389 82.3144C32.0074 82.1221 32.9811 82.1452 33.4953 82.1805C34.7489 82.2208 36.0221 82.1675 37.2756 82.1747C37.6036 82.1762 38.6931 82.1546 38.9528 82.1963C39.4998 82.1978 40.0467 82.1855 40.5932 82.1596C43.1857 82.0307 45.1425 81.2631 46.9281 79.3089C49.0459 76.9903 49.0601 74.3837 48.9876 71.4444C48.9611 70.3693 49.0448 69.2367 48.9846 68.1364C49.0389 67.9132 49.0497 67.8801 48.9896 67.6598C51.3011 67.5366 53.863 67.6698 56.2769 67.5647Z" fill="#121A3E"/>
<path d="M34.3027 82.9858C34.8936 82.7417 50.1383 82.9858 50.126 82.9771C50.3336 82.9829 50.4429 82.9699 50.5527 83.1931C50.1435 83.8815 49.806 84.4388 49.2665 85.0372L48.7187 85.6961C48.427 86.0374 48.13 86.324 47.7531 86.5724C47.5677 86.7027 47.31 86.895 47.1169 86.9972C46.3839 87.4264 44.9284 87.9894 44.094 88.0751C43.9255 88.1111 43.756 88.1421 43.5855 88.1673C41.2887 88.5021 38.5975 87.952 36.7391 86.5573C35.7735 86.0158 34.2942 84.0925 33.8407 83.0354L34.0101 82.9202L34.3027 82.9858Z" fill="#B88FA8"/>
<path d="M36.4159 85.502C38.3634 87.1041 40.6151 87.773 43.1301 87.6038C43.4158 87.7701 44.0001 87.966 44.0931 88.0747C43.9246 88.1107 43.7551 88.1417 43.5846 88.1669C41.2878 88.5017 38.5967 87.9516 36.7382 86.5568C36.9076 86.4899 36.9987 86.464 37.1444 86.3516L37.0935 86.3631C37.1061 86.3235 37.1186 86.2832 37.1312 86.2429C37.0747 86.2112 37.0188 86.1781 36.9636 86.1435C36.7224 85.9945 36.4828 85.79 36.4159 85.502Z" fill="#121A3E"/>
<path d="M48.3836 85.1328C48.3749 85.3539 48.3528 85.4172 48.4717 85.5951C48.5615 85.6426 48.6168 85.6815 48.7185 85.6959C48.4267 86.0372 48.1298 86.3238 47.7528 86.5722C47.5675 86.7025 47.3098 86.8948 47.1167 86.997C46.3836 87.4262 44.9282 87.9893 44.0937 88.075C44.0007 87.9662 43.4164 87.7704 43.1307 87.6041C44.4074 87.4773 45.4671 87.0755 46.6125 86.5341C47.4317 86.0552 47.7191 85.8133 48.3836 85.1328Z" fill="#121A3E"/>
<path d="M47.0252 86.7723L47.3403 86.4605C47.5759 86.408 47.4758 86.4015 47.7533 86.5721C47.5679 86.7025 47.3102 86.8947 47.1171 86.997L47.0252 86.7723Z" fill="#121A3E"/>
<path d="M33.8407 83.0351L34.0101 82.9199L34.3027 82.9854C34.8622 83.7307 35.3777 84.4688 36.0466 85.1247C36.1448 85.2212 36.3355 85.3991 36.4168 85.5021C36.4837 85.7901 36.7233 85.9946 36.9645 86.1436C37.0197 86.1782 37.0756 86.2113 37.1321 86.243C37.1195 86.2833 37.1069 86.3236 37.0944 86.3632L37.1453 86.3517C36.9996 86.4641 36.9085 86.49 36.7391 86.5569C35.7735 86.0155 34.2942 84.0922 33.8407 83.0351Z" fill="#121A3E"/>
<path d="M50.1262 82.9766C50.3338 82.9823 50.4431 82.9694 50.5529 83.1926C50.1437 83.881 49.8061 84.4383 49.2666 85.0366L48.7189 85.6955C48.6172 85.6811 48.5618 85.6422 48.4721 85.5947C48.3532 85.4168 48.3753 85.3535 48.384 85.1324L48.9668 84.5045C49.396 83.981 49.7327 83.5288 50.1262 82.9766Z" fill="#121A3E"/>
<path d="M48.9668 84.5049C48.8941 84.7843 48.7987 84.9218 48.8969 85.1328C49.0752 85.1529 49.0991 85.1241 49.2666 85.037L48.7189 85.6959C48.6172 85.6815 48.5618 85.6426 48.4721 85.5951C48.3532 85.4172 48.3753 85.3538 48.384 85.1328L48.9668 84.5049Z" fill="#121A3E"/>
<path d="M31.5389 82.315C32.0074 82.1228 32.9811 82.1458 33.4953 82.1811C34.7489 82.2214 36.0221 82.1681 37.2756 82.1753C37.6036 82.1768 38.6931 82.1552 38.9528 82.1969C37.3589 82.3856 33.9907 81.9579 32.7971 82.5591L32.688 82.7478C32.283 82.6167 31.9323 82.4742 31.5389 82.315Z" fill="#412E58"/>
<path d="M27.8696 64.5996L27.9906 65.2311C28.169 66.0296 28.3592 66.8138 28.4194 67.6332L48.9373 67.6368L48.9889 67.6599C49.049 67.8802 49.0382 67.9133 48.9839 68.1365C46.9484 68.3094 43.7697 68.2172 41.6315 68.2172L28.5381 68.2157C28.5336 69.4578 28.5367 70.7734 28.5661 72.0436C28.617 74.2462 28.2658 76.9256 28.8799 79.0282C29.0148 79.4897 30.0617 80.2119 30.4174 80.5928C30.7222 80.919 31.044 81.3035 31.3466 81.6247C31.8053 81.6916 33.1395 81.9444 33.4945 82.1806C32.9804 82.1453 32.0067 82.1222 31.5382 82.3145C27.2883 80.0852 27.594 76.8125 27.6305 72.6016C27.6485 70.5264 27.6937 68.2582 27.5508 66.1996L27.3611 64.8581C27.7161 64.9035 27.7105 64.8876 27.8696 64.5996Z" fill="#121A3E"/>
<path d="M27.8696 64.5996L27.9906 65.2311C27.9101 65.3967 27.6114 66.1312 27.5508 66.1996L27.3611 64.8581C27.7161 64.9035 27.7105 64.8876 27.8696 64.5996Z" fill="#121A3E"/>
<path d="M6.83651 58.9709C6.68234 58.7582 6.39216 58.0531 6.25268 57.7712C5.68773 56.6292 5.09397 54.9241 4.35582 53.9008C3.73284 53.0371 2.328 51.8362 1.53145 51.0766C1.14913 50.7121 0.668977 50.3842 0.334172 49.9659L0.303101 49.9265C-0.26856 49.2096 0.155166 39.8959 0.0957608 38.2362C0.0899644 38.0743 0.143464 37.8024 0.214138 37.651C0.809294 37.1713 1.9259 38.2853 2.43763 38.6903C3.22836 39.2033 4.40558 40.2318 5.19693 40.841C5.95004 41.4209 7.46936 42.4726 8.02539 43.0985C8.19561 43.2276 8.43698 43.3994 8.59337 43.5338C9.75763 44.4871 10.0359 44.5384 10.2034 46.2008C10.3523 47.6782 10.3762 49.2913 10.6568 50.7597C10.7102 51.039 11.0794 51.7563 11.1921 52.0794C11.2733 52.2605 11.3702 52.4627 11.4411 52.6454C12.322 54.2407 13.256 56.2007 14.077 57.8427C15.0451 59.7789 15.7667 61.924 16.8843 63.8164C18.1048 66.2502 19.2136 68.7257 20.4358 71.1646C20.6083 71.4569 21.6994 73.6545 21.757 73.8965C22.5785 75.171 23.2567 76.8408 22.9275 78.3774C22.7478 79.222 22.2362 79.9594 21.5077 80.4224C19.9204 81.4189 17.6675 80.9365 16.6839 79.2991C16.6283 79.2055 16.5753 79.1111 16.525 79.0154C16.464 78.9261 16.2372 78.3911 16.1788 78.2586C16.0767 78.1203 15.6435 77.2159 15.5233 76.992C14.62 75.3078 13.8636 73.6135 13.0956 71.8644C12.5285 70.68 11.9076 69.5005 11.3631 68.3102C11.0748 67.9905 9.39688 64.2592 9.07653 63.5579C8.40501 62.1141 7.42544 60.3938 6.83651 58.9709Z" fill="#DA9A22"/>
<path d="M6.8365 58.9709C6.68234 58.7582 6.39216 58.0532 6.25268 57.7712C5.68773 56.6292 5.09397 54.9241 4.35582 53.9008C3.73284 53.0371 2.328 51.8362 1.53145 51.0766C1.14913 50.7121 0.668977 50.3842 0.334172 49.9659L0.303101 49.9265C-0.26856 49.2096 0.155166 39.8959 0.0957608 38.2362C0.0899644 38.0743 0.143464 37.8024 0.214138 37.651C0.809294 37.1713 1.9259 38.2853 2.43763 38.6903C3.22836 39.2033 4.40558 40.2318 5.19693 40.841C5.95004 41.4209 7.46936 42.4726 8.02539 43.0985C8.19561 43.2276 8.43698 43.3994 8.59337 43.5338C9.75763 44.4871 10.0359 44.5384 10.2034 46.2008C10.3523 47.6782 10.3762 49.2913 10.6568 50.7598C10.7102 51.039 11.0794 51.7563 11.1921 52.0794C11.2733 52.2605 11.3702 52.4627 11.4411 52.6454C11.2708 52.9938 11.5734 53.0095 11.3338 53.3132C11.2691 53.3065 11.2088 53.2942 11.1452 53.3103C10.8385 52.8666 10.3939 51.8624 10.1564 51.3457C9.27296 51.9347 6.23432 53.5439 5.20478 54.013C5.57712 54.8055 7.80887 59.2901 7.83818 59.7066C8.51316 60.995 9.14162 62.3662 9.79292 63.6745L9.71976 63.6939C9.48257 63.7588 9.30731 63.6536 9.07653 63.5579C8.405 62.1141 7.42544 60.3938 6.8365 58.9709Z" fill="#CCCDE2"/>
<path d="M6.8365 58.9709C6.68234 58.7582 6.39216 58.0532 6.25268 57.7712C5.68773 56.6292 5.09397 54.9241 4.35582 53.9008C3.73284 53.0371 2.328 51.8362 1.53145 51.0766C1.14913 50.7121 0.668977 50.3842 0.334172 49.9659L0.303101 49.9265C-0.26856 49.2096 0.155166 39.8959 0.0957608 38.2362C0.0899644 38.0743 0.143464 37.8024 0.214138 37.651C0.809294 37.1713 1.9259 38.2853 2.43763 38.6903C3.22836 39.2033 4.40558 40.2318 5.19693 40.841C5.95004 41.4209 7.46936 42.4726 8.02539 43.0985C7.97391 43.2854 7.93783 43.5301 7.88023 43.6901C7.44121 43.4346 6.43536 42.6149 5.99483 42.2693L2.67738 39.6726C2.28724 39.4087 1.9881 39.1999 1.56679 38.9838C2.72766 41.1215 3.66526 43.356 4.67097 45.5696C5.27024 45.6915 5.84484 45.8065 6.16664 46.375C6.81296 47.517 6.12091 48.2611 5.04853 48.515C2.91889 47.9705 3.6331 46.971 3.93053 45.8217C3.96694 45.681 1.11391 39.6654 0.908878 39.2986C0.84979 39.1929 0.789363 39.088 0.727625 38.9838C0.625673 42.0739 0.591261 46.3699 0.71002 49.4446C2.10419 50.7286 3.48568 52.0264 4.85427 53.3377C6.36515 52.6668 8.59841 51.6395 10.0116 50.7562C9.99756 50.6152 9.95702 50.3033 9.96681 50.1775C10.0151 49.8425 9.97804 49.6673 10.1725 49.4552C10.4366 49.6822 10.6148 51.9553 11.1921 52.0794C11.2733 52.2605 11.3702 52.4627 11.4411 52.6454C11.2708 52.9938 11.5734 53.0095 11.3338 53.3132C11.2691 53.3065 11.2088 53.2942 11.1452 53.3103C10.8385 52.8666 10.3939 51.8624 10.1564 51.3457C9.27296 51.9347 6.23432 53.5439 5.20478 54.013C5.57712 54.8055 7.80887 59.2901 7.83818 59.7066C8.51316 60.995 9.14162 62.3662 9.79292 63.6745L9.71976 63.6939C9.48257 63.7588 9.30731 63.6536 9.07653 63.5579C8.405 62.1141 7.42544 60.3938 6.8365 58.9709Z" fill="#121A3E"/>
<path d="M6.8367 58.9717C7.72727 59.5869 8.19552 62.3915 9.26841 63.0719L9.31089 63.0215C9.15053 62.6672 8.97649 62.251 8.80678 61.9061C8.53337 61.3517 7.77825 60.3359 7.83837 59.7074C8.51335 60.9958 9.14182 62.367 9.79311 63.6753L9.71995 63.6948C9.48277 63.7596 9.3075 63.6544 9.07673 63.5587C8.4052 62.1149 7.42564 60.3947 6.8367 58.9717Z" fill="#121A3E"/>
<path d="M8.62153 44.2625C8.57372 44.0193 8.48342 43.7455 8.59294 43.5342C9.7572 44.4875 10.0355 44.5388 10.203 46.2011C10.3518 47.6785 10.3757 49.2917 10.6564 50.7601C10.7098 51.0394 11.079 51.7567 11.1917 52.0798C10.6144 51.9557 10.4362 49.6825 10.1721 49.4556C9.97761 49.6677 10.0147 49.8429 9.96638 50.1779C9.77909 49.3415 9.5764 46.021 9.49114 44.9587C9.20751 44.7467 8.90033 44.4871 8.62153 44.2625Z" fill="#121A3E"/>
<path d="M7.87985 43.6902C7.93746 43.5303 7.97353 43.2856 8.02502 43.0986C8.19524 43.2278 8.4366 43.3995 8.593 43.534C8.48348 43.7453 8.57377 44.0191 8.62158 44.2623L7.87985 43.6902Z" fill="#121A3E"/>
<path d="M21.7578 73.8965C22.5793 75.171 23.2575 76.8408 22.9283 78.3774C22.7486 79.222 22.237 79.9594 21.5086 80.4224C19.9213 81.4189 17.6683 80.9365 16.6847 79.2991C16.6291 79.2055 16.5761 79.1111 16.5258 79.0154C16.4648 78.9261 16.238 78.3911 16.1796 78.2586C16.3049 77.9835 16.3482 77.9238 16.5305 77.6826C16.4542 77.4658 16.4202 77.3996 16.4376 77.1619C16.5349 76.9351 16.9345 76.7911 17.1751 76.6766C17.9168 76.4765 20.6782 75.0111 21.4229 74.582L21.2623 74.1557L21.5466 74.1759C21.7535 74.3213 21.7619 74.2731 21.7973 74.4538L21.8691 74.4185C21.7501 74.2148 21.7475 74.1831 21.7559 73.9418L21.7578 73.8965Z" fill="#CCCDE2"/>
<path d="M21.7573 73.8965C22.5787 75.171 23.2569 76.8408 22.9277 78.3774C22.7481 79.222 22.2365 79.9594 21.508 80.4224C19.9207 81.4189 17.6677 80.9365 16.6841 79.2991C16.6285 79.2055 16.5755 79.1111 16.5252 79.0154C16.8493 79.0355 16.8781 79.0255 17.135 78.8483C17.934 80.0753 19.4102 80.6845 20.8038 80.1185C21.4597 79.8542 21.9816 79.3372 22.2516 78.6834C22.9059 77.0943 21.9684 75.9285 21.4223 74.582L21.2617 74.1557L21.5461 74.1759C21.7529 74.3213 21.7613 74.2731 21.7967 74.4538L21.8685 74.4185C21.7495 74.2148 21.7469 74.1831 21.7553 73.9418L21.7573 73.8965Z" fill="#121A3E"/>
<path d="M16.5305 77.6826C16.7187 78.07 16.9081 78.4855 17.1356 78.8484C16.8787 79.0255 16.8499 79.0356 16.5258 79.0154C16.4648 78.9262 16.238 78.3912 16.1796 78.2587C16.3049 77.9836 16.3482 77.9238 16.5305 77.6826Z" fill="#121A3E"/>
<path d="M11.4413 52.6455C12.3223 54.2408 13.2563 56.2008 14.0773 57.8428C15.0454 59.779 15.767 61.9241 16.8845 63.8164C18.105 66.2502 19.2139 68.7258 20.4361 71.1646C20.211 71.2582 20.0915 71.2244 19.8544 71.1949C19.35 70.2163 18.6752 69.0621 18.2573 68.0677C16.8238 64.656 14.9898 61.4654 13.5018 58.0902C12.7761 56.4443 11.9838 54.8963 11.1455 53.3103C11.2091 53.2943 11.2694 53.3065 11.3341 53.3132C11.5737 53.0096 11.2711 52.9939 11.4413 52.6455Z" fill="#121A3E"/>
<path d="M13.0956 71.8643C13.3557 71.9989 13.6103 72.1688 13.8953 72.1379C14.4044 72.966 15.6017 76.2329 16.1506 76.4165L16.3466 76.3618C16.3442 76.6361 16.2958 76.6296 16.4455 76.7988C16.7472 76.7542 16.9098 76.6555 17.1743 76.6764C16.9338 76.7909 16.5341 76.9349 16.4368 77.1617C16.4194 77.3994 16.4534 77.4656 16.5297 77.6823C16.3474 77.9236 16.3041 77.9833 16.1789 78.2584C16.0768 78.1201 15.6436 77.2157 15.5233 76.9918C14.62 75.3076 13.8637 73.6133 13.0956 71.8643Z" fill="#121A3E"/>
<path d="M21.2261 74.123L21.2611 74.1554L21.4217 74.5817C20.677 75.0109 17.9156 76.4762 17.1739 76.6764C16.9094 76.6555 16.7468 76.7541 16.4451 76.7988C16.2954 76.6296 16.3438 76.636 16.3462 76.3617C16.7849 76.0017 20.5164 74.3513 21.2261 74.123Z" fill="#412E58"/>
<path d="M9.07614 63.5576C9.30692 63.6534 9.48218 63.7585 9.71937 63.6937L9.79253 63.6743C10.5814 65.0366 11.3486 66.9167 12.0372 68.3727C11.9526 68.3683 11.9023 68.3835 11.819 68.3971C11.8767 68.5815 11.8852 68.6074 11.8547 68.7968C11.595 68.683 11.7487 68.4771 11.3628 68.31C11.0744 67.9903 9.39649 64.259 9.07614 63.5576Z" fill="#121A3E"/>
<path d="M11.3633 68.3105C11.7492 68.4776 11.5955 68.6835 11.8552 68.7973C11.8857 68.6079 11.8772 68.582 11.8195 68.3977C11.9028 68.384 11.953 68.3689 12.0377 68.3732C12.6178 69.6506 13.2566 70.8898 13.8953 72.1384C13.6103 72.1693 13.3557 71.9994 13.0957 71.8648C12.5286 70.6803 11.9077 69.5008 11.3633 68.3105Z" fill="#121A3E"/>
<path d="M20.4361 71.165C20.6086 71.4574 21.6997 73.655 21.7573 73.8969L21.7554 73.9423C21.747 74.1835 21.7496 74.2152 21.8686 74.419L21.7968 74.4543C21.7614 74.2735 21.753 74.3218 21.5461 74.1763L21.2618 74.1562L21.2267 74.1238C20.8072 73.1553 20.2968 72.1666 19.8544 71.1953C20.0915 71.2248 20.211 71.2586 20.4361 71.165Z" fill="#121A3E"/>
<path d="M37.5809 89.3558C38.9612 89.278 40.3674 89.3903 41.7511 89.3889C43.7034 89.3882 45.6637 89.2794 47.6122 89.3032C50.841 89.3421 67.9592 89.8411 69.766 91.5253C69.8157 91.5714 69.8373 91.6167 69.8654 91.6772C69.4925 92.488 63.3718 93.1699 62.2806 93.2146C60.3048 93.2873 57.8961 93.5429 55.8543 93.6639C55.4409 93.6401 53.8271 93.751 53.285 93.7654L46.278 93.9656C38.5908 94.0938 30.9018 93.8662 23.2357 93.2837C21.9707 93.1836 15.1023 92.6414 14.662 91.7075C14.6746 91.6384 14.6738 91.5563 14.7219 91.5037C16.1222 89.9693 29.0535 89.7 31.4958 89.5264C32.1211 89.5495 33.1692 89.4753 33.8394 89.4515C35.0864 89.4119 36.3335 89.3795 37.5809 89.3558Z" fill="#CCCDE2"/>
</svg>
